<?xml version="1.0" encoding="UTF-8" standalone="no"?>
<!-- Created with Inkscape (http://www.inkscape.org/) -->

<svg
   xmlns:dc="http://purl.org/dc/elements/1.1/"
   xmlns:cc="http://creativecommons.org/ns#"
   xmlns:rdf="http://www.w3.org/1999/02/22-rdf-syntax-ns#"
   xmlns:svg="http://www.w3.org/2000/svg"
   xmlns="http://www.w3.org/2000/svg"
   xmlns:sodipodi="http://sodipodi.sourceforge.net/DTD/sodipodi-0.dtd"
   xmlns:inkscape="http://www.inkscape.org/namespaces/inkscape"
   id="svg7384"
   sodipodi:docname="interact-icons.svg"
   version="1.1"
   inkscape:version="0.49 r12322"
   height="16"
   width="16"
   inkscape:export-filename="/home/tigert/git/gluster-site/images/interact-bugzilla.png"
   inkscape:export-xdpi="360"
   inkscape:export-ydpi="360">
  <metadata
     id="metadata90">
    <rdf:RDF>
      <cc:Work
         rdf:about="">
        <dc:format>image/svg+xml</dc:format>
        <dc:type
           rdf:resource="http://purl.org/dc/dcmitype/StillImage" />
        <dc:title>Gnome Symbolic Icon Theme</dc:title>
      </cc:Work>
    </rdf:RDF>
  </metadata>
  <sodipodi:namedview
     inkscape:cy="-44.06713"
     pagecolor="#f3f4f6"
     borderopacity="1"
     showborder="false"
     inkscape:bbox-paths="true"
     guidetolerance="10"
     inkscape:object-paths="false"
     inkscape:window-width="1598"
     showguides="true"
     inkscape:object-nodes="false"
     inkscape:snap-bbox="true"
     inkscape:pageshadow="2"
     inkscape:guide-bbox="true"
     inkscape:snap-nodes="false"
     bordercolor="#666666"
     objecttolerance="10"
     id="namedview88"
     showgrid="false"
     inkscape:window-maximized="0"
     inkscape:window-x="1656"
     inkscape:snap-global="false"
     inkscape:window-y="240"
     gridtolerance="10"
     inkscape:window-height="1166"
     inkscape:snap-others="false"
     inkscape:snap-to-guides="true"
     inkscape:current-layer="layer9"
     inkscape:snap-bbox-midpoints="true"
     inkscape:zoom="4"
     inkscape:cx="75.213518"
     inkscape:snap-grids="true"
     inkscape:pageopacity="0"
     inkscape:bbox-nodes="true"
     inkscape:snap-bbox-edge-midpoints="true">
    <inkscape:grid
       spacingx="1px"
       spacingy="1px"
       id="grid4866"
       empspacing="2"
       enabled="true"
       type="xygrid"
       snapvisiblegridlinesonly="true"
       visible="true"
       color="#bbbbd4"
       opacity="0.25098039"
       empcolor="#bbbbd4"
       empopacity="0.37254902" />
  </sodipodi:namedview>
  <title
     id="title9167">Gnome Symbolic Icon Theme</title>
  <defs
     id="defs7386" />
  <g
     inkscape:label="places"
     transform="translate(-61.0002,-177)"
     inkscape:groupmode="layer"
     id="layer9"
     style="display:inline">
    <rect
       style="color:#000000;color-interpolation:sRGB;color-interpolation-filters:linearRGB;fill:#000000;fill-opacity:0.09411765;stroke:none;stroke-width:0.99999994px;marker:none;visibility:visible;display:inline;overflow:visible;enable-background:accumulate;clip-rule:nonzero;color-rendering:auto;image-rendering:auto;shape-rendering:auto;text-rendering:auto"
       id="rect20913"
       width="64"
       height="64"
       x="61.000198"
       y="269"
       rx="0.98524475"
       ry="0.98524475"
       inkscape:export-filename="/home/tigert/git/gluster-site/images/interact-twitter.png"
       inkscape:export-xdpi="275.625"
       inkscape:export-ydpi="275.625" />
    <rect
       style="color:#000000;color-interpolation:sRGB;color-interpolation-filters:linearRGB;fill:#000000;fill-opacity:0.09411765;stroke:none;stroke-width:0.99999994px;marker:none;visibility:visible;display:inline;overflow:visible;enable-background:accumulate;clip-rule:nonzero;color-rendering:auto;image-rendering:auto;shape-rendering:auto;text-rendering:auto"
       id="rect20793"
       width="64"
       height="64"
       x="61.000198"
       y="129"
       rx="0.98524475"
       ry="0.98524475"
       inkscape:export-filename="/home/tigert/git/gluster-site/images/interact-twitter.png"
       inkscape:export-xdpi="275.625"
       inkscape:export-ydpi="275.625" />
    <rect
       inkscape:export-ydpi="275.625"
       inkscape:export-xdpi="275.625"
       inkscape:export-filename="/home/tigert/git/gluster-site/images/interact-twitter.png"
       ry="0.98524475"
       rx="0.98524475"
       y="129"
       x="131.0002"
       height="64"
       width="64"
       id="rect20901"
       style="color:#000000;color-interpolation:sRGB;color-interpolation-filters:linearRGB;fill:#000000;fill-opacity:0.09411765;stroke:none;stroke-width:0.99999994px;marker:none;visibility:visible;display:inline;overflow:visible;enable-background:accumulate;clip-rule:nonzero;color-rendering:auto;image-rendering:auto;shape-rendering:auto;text-rendering:auto" />
    <rect
       inkscape:export-ydpi="275.62"
       inkscape:export-xdpi="275.62"
       inkscape:export-filename="/home/tigert/git/gluster-site/images/interact-twitter.png"
       ry="0.98524475"
       rx="0.98524475"
       y="199"
       x="61.000198"
       height="64"
       width="64"
       id="rect20907"
       style="color:#000000;color-interpolation:sRGB;color-interpolation-filters:linearRGB;fill:#000000;fill-opacity:0.09411765;stroke:none;stroke-width:0.99999994px;marker:none;visibility:visible;display:inline;overflow:visible;enable-background:accumulate;clip-rule:nonzero;color-rendering:auto;image-rendering:auto;shape-rendering:auto;text-rendering:auto" />
    <rect
       style="color:#000000;color-interpolation:sRGB;color-interpolation-filters:linearRGB;fill:#000000;fill-opacity:0.09411765;stroke:none;stroke-width:0.99999994px;marker:none;visibility:visible;display:inline;overflow:visible;enable-background:accumulate;clip-rule:nonzero;color-rendering:auto;image-rendering:auto;shape-rendering:auto;text-rendering:auto"
       id="rect20909"
       width="64"
       height="64"
       x="131.0002"
       y="199"
       rx="0.98524475"
       ry="0.98524475"
       inkscape:export-filename="/home/tigert/git/gluster-site/images/interact-twitter.png"
       inkscape:export-xdpi="275.625"
       inkscape:export-ydpi="275.625" />
    <rect
       inkscape:export-ydpi="360"
       inkscape:export-xdpi="360"
       inkscape:export-filename="/home/tigert/git/gluster-site/images/interact-twitter.png"
       ry="0.98524475"
       rx="0.98524475"
       y="269"
       x="131.0002"
       height="64"
       width="64"
       id="rect20915"
       style="color:#000000;color-interpolation:sRGB;color-interpolation-filters:linearRGB;fill:#000000;fill-opacity:0.09411765;stroke:none;stroke-width:0.99999994px;marker:none;visibility:visible;display:inline;overflow:visible;enable-background:accumulate;clip-rule:nonzero;color-rendering:auto;image-rendering:auto;shape-rendering:auto;text-rendering:auto" />
    <g
       id="g21333"
       transform="translate(0.53033011,6.363961)"
       style="fill:#ffffff;fill-opacity:1">
      <path
         transform="translate(61.0002,177)"
         inkscape:connector-curvature="0"
         d="m 102.74805,-25.362785 c 0.90818,-0.163228 1.92211,-0.05943 2.78898,-0.06014 0.31624,0.02118 0.62812,0.07648 0.9338,0.158939 0.39024,0.115222 0.7583,0.289699 1.12047,0.472581 0.44249,0.239202 0.85056,0.533041 1.24226,0.847057 0.44086,0.357081 0.85407,0.745344 1.25192,1.149256 0.41586,0.443006 0.78312,0.925525 1.12394,1.427477 0.36575,0.540436 0.66669,1.120359 0.94426,1.709826 0.29662,0.609984 0.51921,1.250327 0.71114,1.899643 0.19627,0.637197 0.29889,1.294291 0.36557,1.955844 0.0727,0.690894 0.054,1.385772 0.002,2.077105 -0.0501,0.720039 -0.17766,1.430152 -0.33425,2.13364 -0.14894,0.723587 -0.37092,1.426991 -0.61941,2.1215654 -0.24741,0.6762323 -0.56056,1.3256339 -0.90302,1.9581855 -0.33347,0.5985412 -0.71803,1.1660466 -1.13849,1.7063763 -0.38679,0.4883202 -0.81118,0.9446145 -1.25092,1.3852001 -0.39208,0.3902518 -0.80332,0.7604567 -1.22276,1.1209089 -0.36857,0.319923 -0.7574,0.6144598 -1.15699,0.8941804 -0.34218,0.2373748 -0.69858,0.4530319 -1.07408,0.6331579 -0.32426,0.1449404 -0.6685,0.2353592 -1.01461,0.31007 -1.04694,0.1507665 -2.12451,0.1452044 -3.17447,0.036928 -0.34746,-0.025812 -0.68307,-0.1148471 -1.01649,-0.2100882 -0.367717,-0.1061242 -0.704357,-0.2880433 -1.041963,-0.4635874 -0.367971,-0.1921833 -0.71407,-0.4215983 -1.05319,-0.660065 -0.363223,-0.2619476 -0.716162,-0.5383778 -1.051769,-0.8348999 -0.337078,-0.2978621 -0.65844,-0.6121722 -0.960144,-0.9457229 -0.314061,-0.3352899 -0.585321,-0.705902 -0.869257,-1.0659495 -0.325564,-0.4183957 -0.640864,-0.8446977 -0.956626,-1.2705108 -0.299384,-0.4078712 -0.600062,-0.8147487 -0.875822,-1.2391123 -0.250457,-0.3777796 -0.476611,-0.7713349 -0.677826,-1.1773484 -0.208235,-0.4091324 -0.381403,-0.8351591 -0.538422,-1.2661941 -0.156729,-0.461529 -0.278942,-0.934177 -0.395027,-1.40732 -0.120561,-0.500058 -0.202479,-1.007896 -0.271184,-1.517291 -0.06695,-0.502536 -0.107135,-1.007878 -0.14645,-1.513135 -0.0391,-0.490636 -0.06134,-0.981779 -0.0486,-1.473867 0.01362,-0.502563 0.08003,-1.000315 0.176638,-1.492971 0.107273,-0.504579 0.292915,-0.986922 0.48212,-1.46521 0.188302,-0.475863 0.434666,-0.92429 0.689086,-1.367115 0.240443,-0.426807 0.507957,-0.836557 0.797688,-1.231253 0.273577,-0.376032 0.583622,-0.721987 0.908524,-1.053787 0.302259,-0.306631 0.63674,-0.576987 0.982545,-0.832302 0.340125,-0.251438 0.709866,-0.453625 1.094538,-0.627079 0.432395,-0.191604 0.884699,-0.32829 1.341793,-0.445986 0.485549,-0.11954 0.979776,-0.197414 1.474779,-0.265116 0.478195,-0.06411 0.959309,-0.10138 1.438859,-0.153169 0.23351,-0.02776 0.46823,-0.04219 0.7028,-0.05708 0.13282,-0.790625 2.36905,-0.414953 2.23623,0.375672 l 0,0 c -0.23312,0.01212 -0.46629,0.02409 -0.69892,0.04381 -0.47602,0.05637 -0.95357,0.09463 -1.42968,0.150258 -0.49321,0.06152 -0.98591,0.13137 -1.47162,0.23849 -0.460547,0.10395 -0.917423,0.225713 -1.355738,0.403683 -0.38515,0.149668 -0.755837,0.331458 -1.094829,0.569908 -0.34081,0.24136 -0.669853,0.498941 -0.967531,0.792834 -0.32073,0.320211 -0.627223,0.654192 -0.897399,1.018917 -0.287167,0.384131 -0.552213,0.783852 -0.787633,1.202038 -0.246375,0.435018 -0.496848,0.868948 -0.685023,1.333493 -0.190356,0.462086 -0.365485,0.932468 -0.479585,1.419922 -0.102887,0.476681 -0.170202,0.960302 -0.18224,1.448507 -0.01247,0.483575 0.0065,0.966231 0.05028,1.448074 0.03845,0.500604 0.08793,1.000562 0.15354,1.498367 0.06914,0.5003 0.143718,1.000667 0.263715,1.491789 0.111271,0.464358 0.228901,0.928562 0.38573,1.379915 0.152901,0.421568 0.32178,0.8381556 0.528228,1.2367195 0.205001,0.3961435 0.432437,0.7798473 0.686962,1.1464573 0.288082,0.4170276 0.593558,0.8213998 0.898391,1.2262605 0.31004,0.4229687 0.619096,0.8466958 0.933186,1.2666659 0.271183,0.3592188 0.545818,0.7166079 0.855471,1.0441135 0.306209,0.3204656 0.624997,0.6286321 0.961013,0.91795 0.337055,0.2828483 0.681012,0.5579304 1.042012,0.8098913 0.33404,0.2289787 0.67585,0.4470555 1.03823,0.6290893 0.32867,0.1677772 0.6635,0.3252546 1.02365,0.4139598 0.32885,0.085327 0.663,0.1464299 1.00281,0.1661424 0.84382,0.048884 0.16004,0.00601 -1.86436,0.012724 -0.0542,1.797e-4 0.10839,0.00253 0.1626,0.00297 0.16848,0.00136 0.15405,0.00212 0.32195,-0.013254 0.0534,-0.00489 0.10665,-0.01098 0.15998,-0.01647 0.33853,-0.045967 0.66994,-0.1392518 0.99174,-0.2529608 0.37178,-0.1513546 0.71193,-0.3628772 1.04261,-0.5891996 0.39212,-0.2722831 0.77622,-0.5557174 1.13537,-0.8709903 0.41207,-0.353829 0.81398,-0.7196383 1.19835,-1.1035392 0.43043,-0.4322753 0.85068,-0.8759975 1.22842,-1.3557345 0.4119,-0.5285551 0.79362,-1.0808217 1.12229,-1.6654826 0.33894,-0.6186994 0.64588,-1.2567244 0.89033,-1.9190773 0.24704,-0.6841792 0.47151,-1.3768322 0.62085,-2.0898362 0.15891,-0.690666 0.28897,-1.388149 0.34048,-2.096122 0.0545,-0.675523 0.0789,-1.355609 0.0119,-2.031414 -0.0649,-0.645619 -0.16891,-1.286134 -0.36674,-1.906092 -0.19736,-0.634865 -0.41707,-1.262787 -0.70819,-1.861833 -0.27414,-0.575714 -0.56879,-1.142719 -0.92824,-1.670737 -0.33455,-0.48828 -0.69673,-0.95729 -1.11029,-1.382079 -0.39162,-0.392926 -0.79647,-0.773339 -1.22981,-1.120353 -0.38209,-0.296494 -0.7774,-0.578775 -1.20966,-0.798499 -0.349,-0.169944 -0.70388,-0.333507 -1.08392,-0.421639 -0.29636,-0.0624 -0.5969,-0.111036 -0.90082,-0.106327 3.70246,-0.0042 2.32166,-0.04409 1.50421,0.01746 C 104.7498,-24.276966 102.62923,-24.613048 102.74805,-25.362785 Z"
         id="path21281"
         style="color:#000000;color-interpolation:sRGB;color-interpolation-filters:linearRGB;fill:#ffffff;fill-opacity:1;fill-rule:nonzero;stroke:none;stroke-width:1px;marker:none;visibility:visible;display:inline;overflow:visible;enable-background:accumulate;clip-rule:nonzero;color-rendering:auto;image-rendering:auto;shape-rendering:auto;text-rendering:auto" />
      <path
         transform="translate(61.0002,177)"
         inkscape:connector-curvature="0"
         d="m 101.32629,-26.054472 c 0.1446,-0.05352 0.28964,-0.101936 0.42992,-0.166665 0.16779,-0.07457 0.32145,-0.173182 0.4711,-0.278407 0.15728,-0.112279 0.29718,-0.243635 0.43282,-0.38049 0.1284,-0.126965 0.23476,-0.272066 0.32503,-0.427871 0.0894,-0.155464 0.17058,-0.314961 0.24668,-0.477256 0.0594,-0.123343 0.0792,-0.25975 0.0976,-0.393984 0.009,-0.136941 -0.0182,-0.268668 -0.0642,-0.396771 -0.0568,-0.172388 -0.16353,-0.321312 -0.26865,-0.467099 -0.12355,-0.155151 -0.2684,-0.289194 -0.42054,-0.415724 -0.17435,-0.131475 -0.3678,-0.229547 -0.57536,-0.295337 -0.25488,-0.10755 -0.52379,-0.160366 -0.79563,-0.202164 -0.27817,-0.04925 -0.55852,-0.05129 -0.83979,-0.0465 3.77383,-0.0062 2.18138,-0.07456 1.33682,0.0698 -0.27009,0.04344 -0.52887,0.127233 -0.77974,0.23422 -0.2381,0.105187 -0.46173,0.23898 -0.67949,0.380745 -0.2051,0.138188 -0.376385,0.315795 -0.543265,0.496362 -0.154881,0.159643 -0.275333,0.345319 -0.383141,0.538599 -0.09138,0.164492 -0.142668,0.344539 -0.162556,0.530789 -0.02241,0.199087 0.03413,0.388251 0.09787,0.573977 0.08888,0.225169 0.224084,0.429322 0.373576,0.618474 0.173683,0.207785 0.387456,0.368223 0.619136,0.504933 0.27061,0.1555 0.56181,0.264572 0.85766,0.360749 0.323,0.0975 0.6523,0.17672 0.9877,0.215072 0.0562,0.0049 0.11246,0.01035 0.16876,0.01473 0.028,0.0022 0.30165,0.02079 0.33304,0.02155 0.0535,0.0013 0.21407,-0.002 0.16055,-0.0021 -1.8661,-0.0047 -2.72722,0.0039 -1.88482,-0.004 0.17571,-9.08e-4 0.35006,-0.02372 0.52384,-0.04725 0.12015,-0.766801 2.28899,-0.426962 2.16884,0.33984 l 0,0 c -0.16958,0.0312 -0.33944,0.06147 -0.51088,0.08079 -1.05107,0.05391 -2.11533,0.08203 -3.160923,-0.05685 -0.33635,-0.06353 -0.670006,-0.143631 -0.992077,-0.261067 -0.296244,-0.112651 -0.585472,-0.24311 -0.849695,-0.420169 -0.234853,-0.166839 -0.450404,-0.35719 -0.619971,-0.592236 -0.150011,-0.216757 -0.289379,-0.443847 -0.366774,-0.697885 -0.06534,-0.219334 -0.109578,-0.442922 -0.08952,-0.673275 0.02142,-0.213575 0.06773,-0.42734 0.159881,-0.622285 0.104479,-0.211972 0.220804,-0.419125 0.377657,-0.597589 0.167566,-0.196898 0.34142,-0.391775 0.545959,-0.551291 0.211403,-0.163465 0.441217,-0.301889 0.677938,-0.425605 0.251723,-0.12683 0.51019,-0.236252 0.787338,-0.294411 1.006477,-0.20681 1.944037,-0.196436 3.023167,-0.114015 0.28431,0.0061 0.5672,0.0327 0.84631,0.08926 0.27201,0.05719 0.53677,0.137396 0.79045,0.252642 0.20711,0.101902 0.40744,0.219262 0.57601,0.379049 0.15317,0.146039 0.30209,0.296535 0.42097,0.472884 0.11219,0.16863 0.21026,0.346611 0.26293,0.543631 0.0398,0.162386 0.0673,0.327044 0.0553,0.494999 -0.0177,0.156656 -0.0405,0.31355 -0.089,0.464082 -0.0709,0.170272 -0.14727,0.338523 -0.24437,0.495803 -0.0883,0.175827 -0.19099,0.344774 -0.32404,0.490824 -0.13453,0.150237 -0.27547,0.298061 -0.4385,0.417747 -0.14748,0.124698 -0.30628,0.236302 -0.47795,0.325612 -0.15051,0.07989 -0.30134,0.160877 -0.46983,0.194807 C 103.34658,-25.009788 101.22246,-25.303482 101.32629,-26.054472 Z"
         id="path21283"
         style="color:#000000;color-interpolation:sRGB;color-interpolation-filters:linearRGB;fill:#ffffff;fill-opacity:1;fill-rule:nonzero;stroke:none;stroke-width:1px;marker:none;visibility:visible;display:inline;overflow:visible;enable-background:accumulate;clip-rule:nonzero;color-rendering:auto;image-rendering:auto;shape-rendering:auto;text-rendering:auto" />
      <path
         transform="translate(61.0002,177)"
         inkscape:connector-curvature="0"
         d="m 103.81303,-28.900651 c 0.97657,-0.121768 1.97192,-0.07504 2.95412,-0.01615 0.5465,0.02454 1.08924,0.0925 1.63003,0.172253 0.81604,0.11811 1.62273,0.281334 2.42412,0.474021 0.87249,0.210018 1.73599,0.452977 2.59653,0.70686 0.69601,0.216618 1.39254,0.431437 2.08077,0.67179 0.42404,0.150031 0.8455,0.30724 1.26656,0.465407 0.25178,0.09179 0.50274,0.181449 0.74247,0.301889 0.2596,0.136086 0.44127,0.346891 0.60955,0.580402 0.31545,0.488592 0.50343,1.04518 0.69115,1.591693 0.37004,1.105822 0.58576,2.253279 0.77835,3.400699 0.25633,1.512881 0.33659,3.045168 0.3553,4.576947 0.0172,1.191175 -0.0561,2.380012 -0.15426,3.566315 -0.007,0.896109 -2.54121,0.877355 -2.53458,-0.01875 l 0,0 c 0.0612,-1.18013 0.10719,-2.361178 0.0816,-3.543246 -0.0272,-1.517225 -0.10158,-3.034432 -0.30679,-4.539399 -0.14867,-1.128984 -0.30885,-2.259665 -0.58409,-3.366012 -0.13571,-0.518333 -0.26449,-1.052046 -0.54518,-1.514669 -0.15017,-0.204748 -0.32964,-0.365397 -0.56993,-0.458642 -0.25458,-0.104391 -0.5174,-0.186189 -0.77722,-0.276368 -0.44894,-0.152331 -0.89822,-0.303744 -1.34968,-0.448524 -0.71556,-0.226623 -1.436,-0.437445 -2.15549,-0.651182 -0.86264,-0.246242 -1.72798,-0.48243 -2.60009,-0.693224 -0.77752,-0.182437 -1.55982,-0.340605 -2.34927,-0.462833 -0.50902,-0.07589 -1.02022,-0.137216 -1.53443,-0.164451 -0.85273,-0.04287 -0.18397,-0.0062 1.84771,-0.01204 0.0499,-1.43e-4 -0.0999,-0.0014 -0.14984,-0.0021 -0.0786,-0.0014 -0.15711,-0.0073 -0.2357,-0.0063 -0.0295,3.72e-4 -0.0588,0.0043 -0.0882,0.0064 C 105.81604,-27.809141 103.69256,-28.149885 103.81303,-28.900651 Z"
         id="path21287"
         style="color:#000000;color-interpolation:sRGB;color-interpolation-filters:linearRGB;fill:#ffffff;fill-opacity:1;fill-rule:nonzero;stroke:none;stroke-width:1px;marker:none;visibility:visible;display:inline;overflow:visible;enable-background:accumulate;clip-rule:nonzero;color-rendering:auto;image-rendering:auto;shape-rendering:auto;text-rendering:auto" />
      <path
         transform="translate(61.0002,177)"
         inkscape:connector-curvature="0"
         d="m 98.787783,-28.576844 c -0.260341,0.155623 -0.534426,0.287945 -0.804238,0.426368 -0.641433,0.320303 -1.25983,0.683622 -1.875051,1.051008 -0.795981,0.470342 -1.573745,0.970369 -2.356791,1.461689 -0.713878,0.444471 -1.421871,0.898297 -2.128523,1.35414 -0.484899,0.311171 -0.972523,0.618062 -1.460446,0.924461 -0.280726,0.178357 -0.565119,0.350928 -0.845364,0.530029 -0.214104,0.127886 -0.405344,0.282781 -0.573739,0.466058 -0.26761,0.323989 -0.39637,0.728096 -0.517552,1.123402 -0.213102,0.771886 -0.295154,1.570378 -0.36266,2.365662 -0.09524,1.104879 -0.101371,2.213733 -0.09938,3.321771 0.0068,1.220476 0.04998,2.440392 0.09855,3.659801 0.02178,0.554763 0.04093,1.109623 0.05997,1.664485 0.0049,0.8677607 -2.449545,0.8814892 -2.454399,0.01373 l 0,0 c -0.03745,-0.555124 -0.07537,-1.110231 -0.106235,-1.665772 -0.06199,-1.223295 -0.104209,-2.447978 -0.09506,-3.673054 0.0086,-1.117955 0.04325,-2.236596 0.170569,-3.348285 0.09848,-0.818146 0.219694,-1.637908 0.487113,-2.420855 0.156801,-0.426385 0.327477,-0.856487 0.613923,-1.214858 0.169169,-0.204092 0.364954,-0.381244 0.585628,-0.52899 0.260329,-0.184704 0.531201,-0.353619 0.791265,-0.538898 0.455067,-0.312235 0.910328,-0.624194 1.367134,-0.933883 0.684898,-0.463031 1.369829,-0.926235 2.06973,-1.366517 0.787546,-0.49601 1.568042,-1.004146 2.375993,-1.466764 0.649639,-0.38044 1.308097,-0.747776 1.994002,-1.059546 0.310386,-0.138792 0.618476,-0.283297 0.935733,-0.405855 C 96.750114,-29.590528 98.879945,-29.329853 98.787783,-28.576844 Z"
         id="path21289"
         style="color:#000000;color-interpolation:sRGB;color-interpolation-filters:linearRGB;fill:#ffffff;fill-opacity:1;fill-rule:nonzero;stroke:none;stroke-width:1px;marker:none;visibility:visible;display:inline;overflow:visible;enable-background:accumulate;clip-rule:nonzero;color-rendering:auto;image-rendering:auto;shape-rendering:auto;text-rendering:auto" />
      <path
         transform="translate(61.0002,177)"
         inkscape:connector-curvature="0"
         d="m 99.845588,-30.333876 c -0.26013,0.103004 -0.536381,0.165327 -0.806693,0.236783 -0.618477,0.160485 -1.239833,0.309032 -1.861581,0.456176 -0.821294,0.189799 -1.632087,0.420312 -2.442398,0.651562 -0.819749,0.223551 -1.626427,0.487676 -2.420999,0.787987 -0.711047,0.269036 -1.412398,0.562562 -2.112645,0.858281 -0.551443,0.23893 -1.102917,0.477684 -1.662334,0.697432 -0.405505,0.152126 -0.80776,0.312733 -1.2142,0.462356 -0.283481,0.104836 -0.571944,0.19536 -0.860603,0.284668 -0.87002,0.278658 -1.858652,0.347931 -2.737045,0.07422 -0.30319,-0.10394 -0.554783,-0.303711 -0.80495,-0.497323 -0.475598,-0.371258 -0.94865,-0.745814 -1.424073,-1.117336 -0.642753,-0.485666 -1.27592,-0.983626 -1.911611,-1.478419 -0.30781,-0.242486 -0.608386,-0.493874 -0.90888,-0.745292 -0.08087,-0.831636 2.271353,-1.060361 2.35222,-0.228726 l 0,0 c 0.304897,0.247821 0.60996,0.495468 0.9202,0.736611 0.631875,0.490418 1.266434,0.977837 1.884272,1.485925 0.444582,0.370834 0.88487,0.746569 1.323966,1.123856 0.217637,0.173597 0.44252,0.351049 0.727963,0.386747 0.787388,0.02459 -0.03985,-0.0024 -1.960788,0.01158 -0.153857,0.0011 0.512528,0.0058 0.363912,-0.05532 0.273345,-0.09099 0.546541,-0.182487 0.81807,-0.27879 0.391562,-0.148883 0.778008,-0.310091 1.167993,-0.462878 0.54066,-0.22012 1.074971,-0.454491 1.605414,-0.698276 0.686682,-0.300492 1.372975,-0.602321 2.071963,-0.873498 0.790205,-0.311112 1.591243,-0.590661 2.411453,-0.8132 0.819922,-0.234212 1.639152,-0.472228 2.471157,-0.660846 0.65449,-0.147827 1.310503,-0.288507 1.964368,-0.439109 0.307223,-0.06599 0.612103,-0.145616 0.921729,-0.198868 C 97.825304,-31.37856 99.949425,-31.084866 99.845588,-30.333876 Z"
         id="path21291"
         style="color:#000000;color-interpolation:sRGB;color-interpolation-filters:linearRGB;fill:#ffffff;fill-opacity:1;fill-rule:nonzero;stroke:none;stroke-width:1px;marker:none;visibility:visible;display:inline;overflow:visible;enable-background:accumulate;clip-rule:nonzero;color-rendering:auto;image-rendering:auto;shape-rendering:auto;text-rendering:auto" />
      <path
         transform="translate(61.0002,177)"
         inkscape:connector-curvature="0"
         d="m 103.27764,-30.654538 c 0.2739,0.01417 0.54538,0.05144 0.81801,0.07993 0.51186,0.0663 1.02376,0.132846 1.53653,0.19202 0.75027,0.09284 1.50136,0.179902 2.25297,0.261323 0.88052,0.09309 1.76375,0.156911 2.64714,0.215265 0.95864,0.08833 4.23388,0.07388 0.0614,0.06975 0.59446,-0.0016 1.18864,-0.02138 1.78271,-0.04092 0.36183,-0.0121 0.72363,-0.02508 1.08542,-0.03818 0.24097,-0.0077 0.48138,-0.01523 0.7211,-0.0415 0.28716,-0.02963 0.5725,-0.07257 0.85769,-0.116819 0.43382,-0.07358 0.86012,-0.182039 1.28123,-0.30841 0.6092,-0.189486 1.18486,-0.466669 1.7495,-0.760123 0.70266,-0.366732 1.35762,-0.812623 1.99488,-1.281594 0.65779,-0.49525 1.28104,-1.033611 1.90824,-1.566406 0.47045,-0.40095 0.92482,-0.819836 1.36897,-1.249545 0.0714,-0.82346 2.40052,-0.621423 2.32909,0.202037 l 0,0 c -0.42884,0.44118 -0.87198,0.868156 -1.33642,1.272 -0.62314,0.540269 -1.24323,1.084856 -1.89836,1.586552 -0.64958,0.481782 -1.3137,0.945648 -2.03326,1.318777 -0.58758,0.303466 -1.18335,0.596393 -1.81525,0.79739 -0.44082,0.140043 -0.88971,0.249265 -1.34456,0.333621 -0.29575,0.05071 -0.59346,0.09099 -0.89176,0.123053 -0.23813,0.02882 -0.47504,0.0605 -0.71557,0.06001 -0.34007,0.01726 -0.68015,0.03436 -1.02028,0.05025 -0.56995,0.02616 -1.14003,0.05146 -1.71049,0.06278 -1.57999,-3e-5 -3.16423,0.03281 -4.74209,-0.07743 -0.87841,-0.05987 -1.75653,-0.127307 -2.63115,-0.230043 -0.72847,-0.08589 -1.45651,-0.175852 -2.18323,-0.275559 -0.48779,-0.06554 -0.97498,-0.135524 -1.46264,-0.202016 -0.24363,-0.03179 -0.48859,-0.05658 -0.7304,-0.100129 C 101.03824,-31.068193 103.15881,-31.404275 103.27764,-30.654538 Z"
         id="path21293"
         style="color:#000000;color-interpolation:sRGB;color-interpolation-filters:linearRGB;fill:#ffffff;fill-opacity:1;fill-rule:nonzero;stroke:none;stroke-width:1px;marker:none;visibility:visible;display:inline;overflow:visible;enable-background:accumulate;clip-rule:nonzero;color-rendering:auto;image-rendering:auto;shape-rendering:auto;text-rendering:auto" />
      <path
         transform="translate(61.0002,177)"
         inkscape:connector-curvature="0"
         d="m 104.5122,-31.560702 c 0.73875,-0.01726 1.67715,0.01404 -1.83252,-0.0055 -0.0491,-2.73e-4 0.098,-0.0051 0.14691,-0.0085 0.18401,-0.01278 0.16331,-0.0128 0.35397,-0.03559 0.51643,-0.06724 1.00909,-0.237585 1.49645,-0.413633 0.72826,-0.274634 1.43463,-0.60311 2.13621,-0.939003 0.78613,-0.375015 1.5494,-0.794643 2.29652,-1.241709 0.66002,-0.398834 1.29424,-0.837565 1.90212,-1.311664 0.45306,-0.358973 0.87974,-0.749666 1.23906,-1.203171 0.2692,-0.352455 0.42474,-0.75439 0.46938,-1.192852 0.0173,-0.499054 -0.21421,-0.930641 -0.48066,-1.334965 -0.44299,-0.631715 -1.03895,-1.122111 -1.64028,-1.594684 -0.59217,-0.450984 -1.23679,-0.820121 -1.90438,-1.145456 -0.10317,-0.842956 2.28107,-1.134771 2.38424,-0.291815 l 0,0 c 0.66972,0.343213 1.31757,0.72781 1.90364,1.203228 0.59205,0.494505 1.16455,1.021909 1.56267,1.691681 0.25388,0.466226 0.45583,0.954149 0.43293,1.496337 -0.0454,0.477532 -0.18248,0.926496 -0.45109,1.329513 -0.33691,0.477163 -0.74016,0.897054 -1.19016,1.270092 -0.58367,0.494669 -1.20154,0.946646 -1.85053,1.352441 -0.74396,0.46207 -1.50842,0.890517 -2.29909,1.268038 -0.7228,0.346933 -1.4541,0.678089 -2.20613,0.957261 -0.51853,0.182565 -1.03963,0.366932 -1.58473,0.453238 -0.99085,0.150256 -1.99935,0.08423 -2.99935,0.06579 C 102.26688,-31.939308 104.3817,-32.308403 104.5122,-31.560702 Z"
         id="path21295"
         style="color:#000000;color-interpolation:sRGB;color-interpolation-filters:linearRGB;fill:#ffffff;fill-opacity:1;fill-rule:nonzero;stroke:none;stroke-width:1px;marker:none;visibility:visible;display:inline;overflow:visible;enable-background:accumulate;clip-rule:nonzero;color-rendering:auto;image-rendering:auto;shape-rendering:auto;text-rendering:auto" />
      <path
         transform="translate(61.0002,177)"
         inkscape:connector-curvature="0"
         d="m 97.891464,-30.174875 c -0.320901,-0.04318 -0.638523,-0.106819 -0.957659,-0.161205 -0.629857,-0.109342 -1.251483,-0.259394 -1.871245,-0.414802 -0.830306,-0.223684 -1.647294,-0.491795 -2.462896,-0.763162 -0.798958,-0.271787 -1.587873,-0.572373 -2.366356,-0.897998 -0.620281,-0.245222 -1.215641,-0.545921 -1.805893,-0.855035 -0.44,-0.224596 -0.860365,-0.482504 -1.270813,-0.7566 -0.286886,-0.189328 -0.53578,-0.412681 -0.732425,-0.694163 -0.185222,-0.301065 -0.226718,-0.646593 -0.256511,-0.991056 -0.02448,-0.520026 0.04051,-1.037506 0.125097,-1.549338 0.09481,-0.600575 0.253834,-1.186854 0.448053,-1.762093 0.185807,-0.510736 0.412813,-1.003719 0.67475,-1.479436 0.04463,-0.8042 2.319255,-0.677957 2.274622,0.126243 l 0,0 c -0.254216,0.460094 -0.469111,0.939167 -0.642509,1.435803 -0.190147,0.563939 -0.347008,1.138122 -0.452114,1.724468 -0.0954,0.491562 -0.174585,0.988715 -0.183766,1.49042 0.0073,0.298942 0.02418,0.601178 0.218964,0.844768 0.215509,0.248719 0.484784,0.435391 0.764859,0.605791 0.431817,0.26065 0.873064,0.504932 1.326488,0.726252 0.607855,0.30111 1.223626,0.585513 1.858329,0.826237 0.793594,0.312601 1.594872,0.605775 2.403871,0.876168 0.796754,0.267055 1.594537,0.532888 2.406189,0.751813 0.589919,0.151985 1.181686,0.297419 1.780144,0.412323 0.283497,0.05875 0.57262,0.106555 0.846957,0.200267 C 100.1252,-29.727509 97.999062,-29.423173 97.891464,-30.174875 Z"
         id="path21297"
         style="color:#000000;color-interpolation:sRGB;color-interpolation-filters:linearRGB;fill:#ffffff;fill-opacity:1;fill-rule:nonzero;stroke:none;stroke-width:1px;marker:none;visibility:visible;display:inline;overflow:visible;enable-background:accumulate;clip-rule:nonzero;color-rendering:auto;image-rendering:auto;shape-rendering:auto;text-rendering:auto" />
      <path
         transform="translate(61.0002,177)"
         inkscape:connector-curvature="0"
         d="m 98.256051,-30.618403 c -0.139887,-0.138382 -0.254449,-0.298875 -0.358779,-0.465 -0.153822,-0.223154 -0.275277,-0.46423 -0.378804,-0.714009 -0.109237,-0.264232 -0.166829,-0.544651 -0.190447,-0.828613 -0.02267,-0.273185 0.01507,-0.545137 0.07774,-0.810484 0.06892,-0.27002 0.191916,-0.517968 0.343517,-0.750087 0.157844,-0.233071 0.354527,-0.430101 0.570987,-0.607966 0.229023,-0.18905 0.492192,-0.324388 0.761013,-0.446335 0.25806,-0.113367 0.529075,-0.192651 0.802196,-0.260113 0.254136,-0.06022 0.511086,-0.111097 0.771286,-0.135287 0.95202,-0.03398 1.93567,-0.147644 2.87023,0.07556 0.22903,0.06537 0.42699,0.202676 0.61503,0.344439 0.19963,0.157078 0.35082,0.354372 0.47857,0.571606 0.15305,0.214859 0.24385,0.456436 0.31482,0.708033 0.0765,0.277893 0.0865,0.566207 0.079,0.852424 -0.005,0.279515 -0.0576,0.554295 -0.13525,0.821899 -0.0682,0.259833 -0.19787,0.49129 -0.34405,0.713873 -0.0743,0.112622 -0.16648,0.210699 -0.2584,0.308657 -0.0675,0.776451 -2.2636,0.585621 -2.19613,-0.19083 l 0,0 c 0.0905,-0.08374 0.18341,-0.165781 0.25843,-0.264384 0.14335,-0.195699 0.27461,-0.400852 0.33907,-0.637546 0.0757,-0.246234 0.12266,-0.499946 0.12793,-0.758189 0.007,-0.260993 -0.002,-0.52474 -0.0721,-0.777923 -0.068,-0.230353 -0.16873,-0.443062 -0.30642,-0.640845 -0.12605,-0.187584 -0.27924,-0.349883 -0.46851,-0.475827 -0.18409,-0.11952 -0.37836,-0.216089 -0.59899,-0.244586 -0.11285,-0.01733 -0.22487,-0.02997 -0.339,-0.03569 -0.0395,-0.002 -0.15796,-0.0037 -0.11846,-0.0038 3.33609,-0.013 2.65408,-0.0082 1.92362,-0.0028 -0.25647,0.0063 -0.50855,0.03791 -0.75921,0.09497 -0.26727,0.05985 -0.53395,0.123903 -0.79104,0.21994 -0.26304,0.10392 -0.52327,0.220134 -0.75546,0.383699 -0.21196,0.155068 -0.41597,0.317617 -0.567822,0.535734 -0.15269,0.200107 -0.273601,0.416093 -0.343297,0.65966 -0.06092,0.238057 -0.09923,0.481958 -0.07555,0.728348 0.03019,0.259724 0.0872,0.514097 0.191498,0.755103 0.102424,0.235677 0.22748,0.458441 0.366571,0.67452 0.0973,0.150741 0.20429,0.294387 0.30484,0.442809 C 100.45099,-30.021286 98.312277,-29.862255 98.256051,-30.618403 Z"
         id="path21299"
         style="color:#000000;color-interpolation:sRGB;color-interpolation-filters:linearRGB;fill:#ffffff;fill-opacity:1;fill-rule:nonzero;stroke:none;stroke-width:1px;marker:none;visibility:visible;display:inline;overflow:visible;enable-background:accumulate;clip-rule:nonzero;color-rendering:auto;image-rendering:auto;shape-rendering:auto;text-rendering:auto" />
      <path
         transform="translate(61.0002,177)"
         inkscape:connector-curvature="0"
         id="path21315"
         d="m 102.07926,-25.921923 c -3.093828,0.08844 -6.190938,1.64097 -7.667689,4.441514 -1.484847,2.277658 -2.01521,5.071611 -1.513651,7.739505 0.230364,3.02333 1.646984,5.8045153 3.58417,8.1048562 1.628841,1.9738886 3.508174,4.1147657 6.11093,4.70040571 1.85627,-0.0927335 3.23381,-1.63863861 4.55546,-2.77665101 3.36521,-3.1616035 5.17309,-7.9804579 4.67985,-12.5737499 -0.5698,-3.774851 -2.84327,-7.462918 -6.30745,-9.199463 -0.80929,-0.345717 -1.70103,-0.02819 -2.50802,-0.408796 C 102.70366,-25.939269 102.39068,-25.931775 102.07926,-25.921923 Z"
         style="color:#000000;color-interpolation:sRGB;color-interpolation-filters:linearRGB;fill:#ffffff;fill-opacity:1;fill-rule:nonzero;stroke:none;stroke-width:1px;marker:none;visibility:visible;display:inline;overflow:visible;enable-background:accumulate;clip-rule:nonzero;color-rendering:auto;image-rendering:auto;shape-rendering:auto;text-rendering:auto" />
      <path
         transform="translate(61.0002,177)"
         inkscape:connector-curvature="0"
         id="path21329"
         d="m 101.49921,-36.03134 c -1.948937,0.301584 -3.776367,2.651522 -2.657173,4.557524 0.536956,0.669062 0.241439,1.880693 1.298203,2.066077 2.02027,0.16607 3.59687,-1.794716 3.65707,-3.684689 C 103.83285,-34.401272 103.05164,-36.160489 101.49921,-36.03134 Z"
         style="color:#000000;color-interpolation:sRGB;color-interpolation-filters:linearRGB;fill:#ffffff;fill-opacity:1;fill-rule:nonzero;stroke:none;stroke-width:1px;marker:none;visibility:visible;display:inline;overflow:visible;enable-background:accumulate;clip-rule:nonzero;color-rendering:auto;image-rendering:auto;shape-rendering:auto;text-rendering:auto" />
      <path
         transform="translate(61.0002,177)"
         inkscape:connector-curvature="0"
         id="path21331"
         d="m 101.63179,-30.711467 c -0.90489,0.2569 -1.906629,0.384414 -2.541161,1.198767 -1.056264,0.832792 -1.304199,2.490632 -0.270689,3.447146 0.699444,0.952681 2.03329,1.70206 3.13226,0.894932 1.49664,-0.732146 3.08133,-2.636922 1.97217,-4.303408 C 103.40789,-30.187289 102.54821,-30.793279 101.63179,-30.711467 Z"
         style="color:#000000;color-interpolation:sRGB;color-interpolation-filters:linearRGB;fill:#ffffff;fill-opacity:1;fill-rule:nonzero;stroke:none;stroke-width:1px;marker:none;visibility:visible;display:inline;overflow:visible;enable-background:accumulate;clip-rule:nonzero;color-rendering:auto;image-rendering:auto;shape-rendering:auto;text-rendering:auto" />
    </g>
    <path
       style="color:#000000;color-interpolation:sRGB;color-interpolation-filters:linearRGB;fill:#ffffff;fill-opacity:1;fill-rule:nonzero;stroke:none;stroke-width:1px;marker:none;visibility:visible;display:inline;overflow:visible;enable-background:accumulate;clip-rule:nonzero;color-rendering:auto;image-rendering:auto;shape-rendering:auto;text-rendering:auto"
       d="m 173.72332,203.3952 c -0.17744,-0.0524 -0.35552,0.0446 -0.40786,0.22209 l -2.77789,9.41866 c -0.0524,0.17744 0.0416,0.36567 0.2191,0.41801 l 14.65123,4.32115 c 0.17746,0.0524 0.35851,-0.0547 0.41086,-0.23223 l 2.77789,-9.41867 c 0.0522,-0.17751 -0.0446,-0.35551 -0.22208,-0.40785 L 173.72332,203.3952 z m -0.27712,0.60303 5.90946,6.13847 c 0.35226,0.35409 0.77841,0.44237 1.23955,0.36557 l 7.6127,-1.99572 -6.88364,2.33223 3.99389,6.37976 -4.33831,-6.26047 -0.57643,0.19447 c -0.46114,0.0768 -0.88726,-0.0115 -1.23956,-0.36558 l -0.68567,-0.8207 -7.30324,3.08096 7.0972,-3.31844 L 173.44609,203.99818 Z"
       id="path21480"
       inkscape:connector-curvature="0" />
    <g
       id="g21487"
       transform="translate(-70,0)">
      <path
         style="color:#000000;color-interpolation:sRGB;color-interpolation-filters:linearRGB;fill:#ffffff;fill-opacity:1;fill-rule:nonzero;stroke:none;stroke-width:1px;marker:none;visibility:visible;display:inline;overflow:visible;enable-background:accumulate;clip-rule:nonzero;color-rendering:auto;image-rendering:auto;shape-rendering:auto;text-rendering:auto"
         d="m 140.0839,226.21694 c -0.53993,0.08 -0.89626,0.56041 -0.81622,1.10034 l 4.2479,28.6556 c 0.08,0.53992 0.56498,0.92718 1.10491,0.84714 l 44.57539,-6.60784 c 0.53993,-0.08 0.89168,-0.59133 0.81164,-1.13125 l -4.2479,-28.65561 c -0.08,-0.53993 -0.5604,-0.89626 -1.10033,-0.81622 L 140.0839,226.21694 z m 0.006,1.9578 23.43143,9.09995 c 1.38214,0.51066 2.63227,0.21848 3.77129,-0.55906 l 17.90051,-14.7847 -15.53169,14.78106 18.6036,12.1218 -19.3775,-11.37525 -1.30165,1.23547 c -1.13902,0.77754 -2.38914,1.06972 -3.77129,0.55906 l -2.85324,-1.34616 -15.72609,17.3056 14.87997,-17.68564 L 140.0898,228.17474 Z"
         id="path21489"
         inkscape:connector-curvature="0" />
      <path
         inkscape:connector-curvature="0"
         id="path21491"
         d="m 160.85453,203.06809 c -0.22055,-0.0646 -0.44151,0.0562 -0.50614,0.27675 l -3.43006,11.7051 c -0.0646,0.22055 0.0524,0.45414 0.27303,0.51877 l 18.20796,5.33565 c 0.22052,0.0647 0.44521,-0.0688 0.50983,-0.28935 l 3.43007,-11.70512 c 0.0646,-0.22056 -0.0562,-0.44151 -0.27673,-0.50614 L 160.85453,203.06809 z m -0.34289,0.74965 7.35353,7.61192 c 0.43835,0.43902 0.96785,0.5478 1.54047,0.45142 l 9.45156,-2.49541 -8.54525,2.91182 4.97471,7.91576 -5.40227,-7.76683 -0.71557,0.24278 c -0.57262,0.0964 -1.10211,-0.0124 -1.54048,-0.45142 l -0.85345,-1.01792 -9.06484,3.84274 8.80839,-4.13728 L 160.51148,203.81766 Z"
         style="color:#000000;color-interpolation:sRGB;color-interpolation-filters:linearRGB;fill:#ffffff;fill-opacity:1;fill-rule:nonzero;stroke:none;stroke-width:1px;marker:none;visibility:visible;display:inline;overflow:visible;enable-background:accumulate;clip-rule:nonzero;color-rendering:auto;image-rendering:auto;shape-rendering:auto;text-rendering:auto" />
      <path
         style="color:#000000;color-interpolation:sRGB;color-interpolation-filters:linearRGB;fill:#ffffff;fill-opacity:1;fill-rule:nonzero;stroke:none;stroke-width:1px;marker:none;visibility:visible;display:inline;overflow:visible;enable-background:accumulate;clip-rule:nonzero;color-rendering:auto;image-rendering:auto;shape-rendering:auto;text-rendering:auto"
         d="m 140.36021,213.49742 c -0.15592,0.0459 -0.24116,0.20232 -0.19522,0.35826 l 2.43761,8.27546 c 0.0459,0.15592 0.20493,0.25009 0.36089,0.20415 l 12.87293,-3.79184 c 0.15593,-0.0459 0.23853,-0.21124 0.19259,-0.36718 l -2.4376,-8.27547 c -0.046,-0.15592 -0.20233,-0.24115 -0.35826,-0.19521 L 140.36021,213.49742 z m 0.0828,0.57713 7.28665,1.71493 c 0.42873,0.0935 0.78533,-0.0444 1.0891,-0.3208 l 4.66791,-5.10043 -3.96945,5.00141 5.98777,2.80576 -6.18514,-2.5536 -0.3328,0.4182 c -0.30377,0.2764 -0.66038,0.41425 -1.0891,0.32081 l -0.89714,-0.27904 -3.9224,5.75398 3.65715,-5.83108 L 140.4429,214.07457 Z"
         id="path21493"
         inkscape:connector-curvature="0" />
      <path
         inkscape:connector-curvature="0"
         id="path21567"
         d="m 210.0839,226.21694 c -0.53993,0.08 -0.89626,0.56041 -0.81622,1.10034 l 4.2479,28.6556 c 0.08,0.53992 0.56498,0.92718 1.10491,0.84714 l 44.57539,-6.60784 c 0.53993,-0.08 0.89168,-0.59133 0.81164,-1.13125 l -4.2479,-28.65561 c -0.08,-0.53993 -0.5604,-0.89626 -1.10033,-0.81622 L 210.0839,226.21694 z m 0.006,1.9578 23.43143,9.09995 c 1.38214,0.51066 2.63227,0.21848 3.77129,-0.55906 l 17.90051,-14.7847 -15.53169,14.78106 18.6036,12.1218 -19.3775,-11.37525 -1.30165,1.23547 c -1.13902,0.77754 -2.38914,1.06972 -3.77129,0.55906 l -2.85324,-1.34616 -15.72609,17.3056 14.87997,-17.68564 L 210.0898,228.17474 Z"
         style="color:#000000;color-interpolation:sRGB;color-interpolation-filters:linearRGB;fill:#ffffff;fill-opacity:1;fill-rule:nonzero;stroke:none;stroke-width:1px;marker:none;visibility:visible;display:inline;overflow:visible;enable-background:accumulate;clip-rule:nonzero;color-rendering:auto;image-rendering:auto;shape-rendering:auto;text-rendering:auto" />
    </g>
    <g
       id="g21548"
       transform="matrix(0.49903908,-0.20656419,0.20656419,0.49903908,22.038018,130.64473)">
      <path
         transform="translate(61.0002,177)"
         id="rect21433"
         d="m 123.65625,42.59375 -44.5625,6.625 c -0.53993,0.08 -0.89254,0.55382 -0.8125,1.09375 L 82.5,78.96875 c 0.08,0.53992 0.58507,0.92379 1.125,0.84375 l 44.5625,-6.59375 c 0.53993,-0.08 0.89254,-0.58508 0.8125,-1.125 L 124.75,43.4375 C 124.67,42.89757 124.19618,42.51371 123.65625,42.59375 z m -0.4375,1.53125 4.03125,27.71875 c -4.4475,-0.28582 -8.2279,-1.71972 -12.875,-1.65625 -1.48282,-1.710603 -0.79404,-5.753946 -0.6875,-8.21875 0.0376,0.01658 0.0831,0.03125 0.125,0.03125 0.20747,0 0.375,-0.219311 0.375,-0.5 0,-0.190869 -0.0725,-0.350617 -0.1875,-0.4375 0.9119,0.149049 2.32167,1.344348 3.375,2.59375 -0.17678,-1.59099 -1.39921,-3.801776 -3.34375,-3.625 0.69116,-1.166091 2.13496,-1.623377 4.6875,0.0625 -1.2701,-2.06688 -3.08303,-2.220884 -4.34375,-1.0625 0.35356,-1.59099 2.47688,-2.385723 4.15625,-2.5625 -3.27036,-0.265165 -4.14736,0.898287 -5.03125,2.3125 -0.1768,-0.618718 0.15625,-5.21875 0.15625,-5.21875 0,0 -1.05715,1.813577 -0.96875,5.4375 -1.41421,-1.679379 -4.93823,-0.171003 -5.8125,1.46875 -0.81196,1.522895 2.44764,-3.417022 5.46875,-0.4375 -2.65165,-0.707107 -4.94285,1.66269 -5.03125,5.375 0.0831,-0.49851 1.63661,-5.683753 4.6875,-4.46875 -0.14602,0.09317 -0.21875,0.245827 -0.21875,0.4375 0,0.292893 0.21931,0.53125 0.5,0.53125 0.11638,0 0.19723,-0.05615 0.28125,-0.125 0.22082,2.252496 -0.83134,6.019239 -0.6875,8.5 -2.33338,0.14829 -9.16527,1.437 -11.09375,3.375 -1.39816,-1.24398 -4.95234,2.99455 -5.6875,0.4375 -1.62875,0.8265 -3.70821,2.69746 -5.3125,0.84375 -2.99683,1.7063 -2.98376,1.63722 -5.53125,3.28125 L 79.625,50.5625 123.21875,44.125 Z"
         style="color:#000000;color-interpolation:sRGB;color-interpolation-filters:linearRGB;fill:#ffffff;fill-opacity:1;fill-rule:nonzero;stroke:none;stroke-width:1px;marker:none;visibility:visible;display:inline;overflow:visible;enable-background:accumulate;clip-rule:nonzero;color-rendering:auto;image-rendering:auto;shape-rendering:auto;text-rendering:auto"
         inkscape:connector-curvature="0" />
      <g
         transform="matrix(1.3035866,0,0,1.3035866,-64.89585,-58.832571)"
         id="g21531">
        <path
           sodipodi:type="arc"
           style="color:#000000;color-interpolation:sRGB;color-interpolation-filters:linearRGB;fill:#ffffff;fill-opacity:1;fill-rule:nonzero;stroke:none;stroke-width:1px;marker:none;visibility:visible;display:inline;overflow:visible;enable-background:accumulate;clip-rule:nonzero;color-rendering:auto;image-rendering:auto;shape-rendering:auto;text-rendering:auto"
           id="path21505"
           sodipodi:cx="104.96117"
           sodipodi:cy="55.951534"
           sodipodi:rx="1.2374369"
           sodipodi:ry="1.2374369"
           d="m 106.1986,55.951534 c 0,0.683418 -0.55402,1.237437 -1.23743,1.237437 -0.68342,0 -1.23744,-0.554019 -1.23744,-1.237437 0,-0.683417 0.55402,-1.237437 1.23744,-1.237437 C 105.64458,54.714097 106.1986,55.268117 106.1986,55.951534 Z"
           transform="translate(61.0002,177)" />
        <path
           sodipodi:type="arc"
           style="color:#000000;color-interpolation:sRGB;color-interpolation-filters:linearRGB;fill:#ffffff;fill-opacity:1;fill-rule:nonzero;stroke:none;stroke-width:1px;marker:none;visibility:visible;display:inline;overflow:visible;enable-background:accumulate;clip-rule:nonzero;color-rendering:auto;image-rendering:auto;shape-rendering:auto;text-rendering:auto"
           id="path21507"
           sodipodi:cx="101.00578"
           sodipodi:cy="56.72493"
           sodipodi:rx="1.0827572"
           sodipodi:ry="1.0827572"
           d="m 102.08854,56.72493 c 0,0.59799 -0.48477,1.082757 -1.08276,1.082757 -0.59799,0 -1.082754,-0.484767 -1.082754,-1.082757 0,-0.59799 0.484764,-1.082757 1.082754,-1.082757 C 101.60377,55.642173 102.08854,56.12694 102.08854,56.72493 Z"
           transform="translate(61.0002,177)" />
        <path
           sodipodi:type="arc"
           style="color:#000000;color-interpolation:sRGB;color-interpolation-filters:linearRGB;fill:#ffffff;fill-opacity:1;fill-rule:nonzero;stroke:none;stroke-width:1px;marker:none;visibility:visible;display:inline;overflow:visible;enable-background:accumulate;clip-rule:nonzero;color-rendering:auto;image-rendering:auto;shape-rendering:auto;text-rendering:auto"
           id="path21509"
           sodipodi:cx="101.88967"
           sodipodi:cy="55.354912"
           sodipodi:rx="2.0108349"
           sodipodi:ry="1.8782524"
           d="m 103.90051,55.354912 c 0,1.03733 -0.90029,1.878252 -2.01084,1.878252 -1.11055,0 -2.010834,-0.840922 -2.010834,-1.878252 0,-1.03733 0.900284,-1.878253 2.010834,-1.878253 C 103.00022,53.476659 103.90051,54.317582 103.90051,55.354912 Z"
           transform="translate(62.016666,177.66291)" />
        <path
           sodipodi:type="arc"
           style="color:#000000;color-interpolation:sRGB;color-interpolation-filters:linearRGB;fill:#ffffff;fill-opacity:1;fill-rule:nonzero;stroke:none;stroke-width:1px;marker:none;visibility:visible;display:inline;overflow:visible;enable-background:accumulate;clip-rule:nonzero;color-rendering:auto;image-rendering:auto;shape-rendering:auto;text-rendering:auto"
           id="path21511"
           sodipodi:cx="103.50275"
           sodipodi:cy="54.581512"
           sodipodi:rx="1.4584078"
           sodipodi:ry="1.4584078"
           d="m 104.96115,54.581512 c 0,0.805457 -0.65295,1.458408 -1.4584,1.458408 -0.80546,0 -1.45841,-0.652951 -1.45841,-1.458408 0,-0.805456 0.65295,-1.458407 1.45841,-1.458407 C 104.3082,53.123105 104.96115,53.776056 104.96115,54.581512 Z"
           transform="translate(61.0002,177)" />
        <path
           sodipodi:type="arc"
           style="color:#000000;color-interpolation:sRGB;color-interpolation-filters:linearRGB;fill:#ffffff;fill-opacity:1;fill-rule:nonzero;stroke:none;stroke-width:1px;marker:none;visibility:visible;display:inline;overflow:visible;enable-background:accumulate;clip-rule:nonzero;color-rendering:auto;image-rendering:auto;shape-rendering:auto;text-rendering:auto"
           id="path21515"
           sodipodi:cx="100.8953"
           sodipodi:cy="54.890873"
           sodipodi:rx="0.92807764"
           sodipodi:ry="0.92807764"
           d="m 101.82338,54.890873 c 0,0.512563 -0.41552,0.928078 -0.92808,0.928078 -0.51256,0 -0.928076,-0.415515 -0.928076,-0.928078 0,-0.512563 0.415516,-0.928078 0.928076,-0.928078 C 101.40786,53.962795 101.82338,54.37831 101.82338,54.890873 Z"
           transform="translate(61.0002,177)" />
      </g>
      <g
         transform="matrix(0.66356386,0,0,0.66356386,41.625604,90.864962)"
         id="g21525">
        <path
           sodipodi:type="arc"
           style="color:#000000;color-interpolation:sRGB;color-interpolation-filters:linearRGB;fill:#ffffff;fill-opacity:1;fill-rule:nonzero;stroke:none;stroke-width:1px;marker:none;visibility:visible;display:inline;overflow:visible;enable-background:accumulate;clip-rule:nonzero;color-rendering:auto;image-rendering:auto;shape-rendering:auto;text-rendering:auto"
           id="path21517"
           sodipodi:cx="109.18171"
           sodipodi:cy="54.29425"
           sodipodi:rx="1.4805049"
           sodipodi:ry="1.4805049"
           d="m 110.66221,54.29425 c 0,0.817661 -0.66284,1.480505 -1.4805,1.480505 -0.81766,0 -1.48051,-0.662844 -1.48051,-1.480505 0,-0.81766 0.66285,-1.480504 1.48051,-1.480504 C 109.99937,52.813746 110.66221,53.47659 110.66221,54.29425 Z"
           transform="translate(61.0002,177)" />
        <path
           sodipodi:type="arc"
           style="color:#000000;color-interpolation:sRGB;color-interpolation-filters:linearRGB;fill:#ffffff;fill-opacity:1;fill-rule:nonzero;stroke:none;stroke-width:1px;marker:none;visibility:visible;display:inline;overflow:visible;enable-background:accumulate;clip-rule:nonzero;color-rendering:auto;image-rendering:auto;shape-rendering:auto;text-rendering:auto"
           id="path21519"
           sodipodi:cx="110.7506"
           sodipodi:cy="53.653435"
           sodipodi:rx="1.767767"
           sodipodi:ry="1.767767"
           d="m 112.51837,53.653435 c 0,0.97631 -0.79146,1.767767 -1.76777,1.767767 -0.97631,0 -1.76776,-0.791457 -1.76776,-1.767767 0,-0.976311 0.79145,-1.767767 1.76776,-1.767767 C 111.72691,51.885668 112.51837,52.677124 112.51837,53.653435 Z"
           transform="translate(61.0002,177)" />
        <path
           sodipodi:type="arc"
           style="color:#000000;color-interpolation:sRGB;color-interpolation-filters:linearRGB;fill:#ffffff;fill-opacity:1;fill-rule:nonzero;stroke:none;stroke-width:1px;marker:none;visibility:visible;display:inline;overflow:visible;enable-background:accumulate;clip-rule:nonzero;color-rendering:auto;image-rendering:auto;shape-rendering:auto;text-rendering:auto"
           id="path21521"
           sodipodi:cx="112.65095"
           sodipodi:cy="54.139572"
           sodipodi:rx="1.016466"
           sodipodi:ry="1.016466"
           d="m 113.66741,54.139572 c 0,0.561379 -0.45508,1.016466 -1.01646,1.016466 -0.56138,0 -1.01647,-0.455087 -1.01647,-1.016466 0,-0.561379 0.45509,-1.016466 1.01647,-1.016466 C 113.21233,53.123106 113.66741,53.578193 113.66741,54.139572 Z"
           transform="translate(61.0002,177)" />
        <path
           sodipodi:type="arc"
           style="color:#000000;color-interpolation:sRGB;color-interpolation-filters:linearRGB;fill:#ffffff;fill-opacity:1;fill-rule:nonzero;stroke:none;stroke-width:1px;marker:none;visibility:visible;display:inline;overflow:visible;enable-background:accumulate;clip-rule:nonzero;color-rendering:auto;image-rendering:auto;shape-rendering:auto;text-rendering:auto"
           id="path21523"
           sodipodi:cx="112.78353"
           sodipodi:cy="50.427261"
           sodipodi:rx="1.016466"
           sodipodi:ry="1.016466"
           d="m 113.8,50.427261 c 0,0.561379 -0.45509,1.016466 -1.01647,1.016466 -0.56138,0 -1.01646,-0.455087 -1.01646,-1.016466 0,-0.561378 0.45508,-1.016466 1.01646,-1.016466 C 113.34491,49.410795 113.8,49.865883 113.8,50.427261 Z"
           transform="translate(62.370219,178.98873)" />
      </g>
      <path
         sodipodi:type="arc"
         style="color:#000000;color-interpolation:sRGB;color-interpolation-filters:linearRGB;fill:#ffffff;fill-opacity:1;fill-rule:nonzero;stroke:none;stroke-width:1px;marker:none;visibility:visible;display:inline;overflow:visible;enable-background:accumulate;clip-rule:nonzero;color-rendering:auto;image-rendering:auto;shape-rendering:auto;text-rendering:auto"
         id="path21569"
         sodipodi:cx="89.53125"
         sodipodi:cy="31.5"
         sodipodi:rx="1.40625"
         sodipodi:ry="1.40625"
         d="m 90.9375,31.5 c 0,0.77665 -0.6296,1.40625 -1.40625,1.40625 -0.77665,0 -1.40625,-0.6296 -1.40625,-1.40625 0,-0.77665 0.6296,-1.40625 1.40625,-1.40625 C 90.3079,30.09375 90.9375,30.72335 90.9375,31.5 Z"
         transform="matrix(4.2317603,0.93326458,-0.93326458,4.2317603,-190.8361,15.862452)" />
    </g>
  </g>
  <g
     inkscape:groupmode="layer"
     id="layer1"
     inkscape:label="icons">
    <g
       transform="matrix(0.24,0,0,-0.24,7.999998,143.50432)"
       inkscape:label="ink_ext_XXXXXX"
       id="g20860"
       style="fill:#ffffff;fill-opacity:1;display:inline">
      <g
         transform="scale(0.1,0.1)"
         id="g20862"
         style="fill:#ffffff;fill-opacity:1">
        <path
           id="path20864"
           style="fill:#ffffff;fill-opacity:1;fill-rule:nonzero;stroke:none"
           d="m 2000,1432.96 c -73.58,-32.64 -152.67,-54.69 -235.66,-64.61 84.7,50.78 149.77,131.19 180.41,227.01 -79.29,-47.03 -167.1,-81.17 -260.57,-99.57 -74.84,79.75 -181.48,129.57 -299.5,129.57 -226.6,0 -410.328,-183.71 -410.328,-410.31 0,-32.16 3.628,-63.48 10.625,-93.51 -341.016,17.11 -643.368,180.47 -845.739,428.72 -35.324,-60.6 -55.5583,-131.09 -55.5583,-206.29 0,-142.36 72.4373,-267.95 182.5433,-341.53 -67.262,2.13 -130.535,20.59 -185.8519,51.32 -0.0391,-1.71 -0.0391,-3.42 -0.0391,-5.16 0,-198.803 141.441,-364.635 329.145,-402.342 -34.426,-9.375 -70.676,-14.395 -108.098,-14.395 -26.441,0 -52.145,2.578 -77.203,7.364 C 276.391,476.219 427.926,357.578 607.48,354.281 467.051,244.219 290.129,178.621 97.8828,178.621 64.7617,178.621 32.0977,180.57 0,184.359 181.586,67.9414 397.27,0 628.988,0 1383.72,0 1796.45,625.238 1796.45,1167.47 c 0,17.79 -0.41,35.48 -1.2,53.08 80.18,57.86 149.74,130.12 204.75,212.41"
           inkscape:connector-curvature="0" />
      </g>
    </g>
    <g
       id="g21227"
       transform="matrix(1.2995567,0,0,1.2995567,-5.3702934,5.029274)">
      <g
         id="g21218" />
      <g
         id="g21246"
         transform="translate(2.3084795,-0.76949317)">
        <path
           style="color:#000000;color-interpolation:sRGB;color-interpolation-filters:linearRGB;fill:#ffffff;fill-opacity:1;fill-rule:nonzero;stroke:none;stroke-width:1px;marker:none;visibility:visible;display:inline;overflow:visible;enable-background:accumulate;clip-rule:nonzero;color-rendering:auto;image-rendering:auto;shape-rendering:auto;text-rendering:auto"
           id="path21124"
           d="m 33.584953,-21.564782 c -0.09733,0.395324 -0.165218,0.796672 -0.229404,1.198425 -0.140445,1.009836 -0.277986,2.019927 -0.430097,3.028118 -0.181855,1.27191 -0.402108,2.537329 -0.650688,3.797727 -0.177556,0.880947 -0.376176,1.757591 -0.586944,2.631148 -0.05369,0.233536 -0.118992,0.465194 -0.155391,0.702312 0.0036,1.5460194 -2.182769,1.5511568 -2.186401,0.0051 l 0,0 c -0.03921,-0.251537 -0.01516,-0.503267 0.01849,-0.754805 0.117728,-0.880579 0.26863,-1.756138 0.409509,-2.633226 0.210109,-1.265477 0.417169,-2.531474 0.642327,-3.794396 0.188993,-1.014323 0.370775,-2.030703 0.60459,-3.035915 0.110526,-0.416338 0.213504,-0.845202 0.413284,-1.229448 C 31.494275,-23.170497 33.645002,-23.085575 33.584953,-21.564782 Z"
           inkscape:connector-curvature="0" />
        <g
           transform="translate(0.04162135,9.7851044)"
           id="g21212">
          <path
             style="color:#000000;color-interpolation:sRGB;color-interpolation-filters:linearRGB;fill:#ffffff;fill-opacity:1;fill-rule:nonzero;stroke:none;stroke-width:1px;marker:none;visibility:visible;display:inline;overflow:visible;enable-background:accumulate;clip-rule:nonzero;color-rendering:auto;image-rendering:auto;shape-rendering:auto;text-rendering:auto"
             id="path21094"
             d="m 15.040571,-33.981612 c 0.03906,0.53693 -0.0496,1.07681 -0.113752,1.60871 -0.171007,1.387169 -0.391935,2.767611 -0.611394,4.147757 -0.271936,1.70868 -0.562036,3.414383 -0.871699,5.116617 -0.238205,1.30885 -0.500405,2.613016 -0.768623,3.915976 -0.07544,0.57457 -0.319759,1.129844 -0.365053,1.708658 0.01987,1.552717 -2.176005,1.580815 -2.195874,0.0281 l 0,0 c -0.1456735,-0.581879 0.07024,-1.200595 0.107982,-1.783142 0.184846,-1.307449 0.36854,-2.615123 0.578822,-3.918797 0.273125,-1.708671 0.545249,-3.417696 0.870953,-5.117361 0.260422,-1.385743 0.528659,-2.770167 0.845209,-4.144404 0.122378,-0.521186 0.250426,-1.04102 0.373005,-1.562112 C 12.890147,-35.50219 15.040571,-35.50219 15.040571,-33.981612 Z"
             inkscape:connector-curvature="0" />
          <path
             style="color:#000000;color-interpolation:sRGB;color-interpolation-filters:linearRGB;fill:#ffffff;fill-opacity:1;fill-rule:nonzero;stroke:none;stroke-width:1px;marker:none;visibility:visible;display:inline;overflow:visible;enable-background:accumulate;clip-rule:nonzero;color-rendering:auto;image-rendering:auto;shape-rendering:auto;text-rendering:auto"
             id="path21096"
             d="m 19.638584,-34.506167 c 0.04033,0.569969 -0.06752,1.144529 -0.147898,1.707207 -0.2005,1.362948 -0.465316,2.715059 -0.738269,4.064981 -0.296549,1.483365 -0.644887,2.955624 -1.033835,4.417304 -0.267565,1.013227 -0.569242,2.016741 -0.87166,3.019934 -0.11951,0.413024 -0.257333,0.820302 -0.405912,1.223662 -0.02175,1.535742 -2.193617,1.504985 -2.171869,-0.03076 l 0,0 c -0.02302,-0.426479 0.147067,-0.842183 0.207321,-1.259025 0.219163,-1.00977 0.464453,-2.013764 0.691959,-3.021674 0.333396,-1.467365 0.653497,-2.937679 0.968987,-4.408991 0.295295,-1.355906 0.596109,-2.710838 0.934077,-4.056865 0.137307,-0.552033 0.284256,-1.101646 0.413037,-1.655775 C 17.484522,-36.029319 19.638584,-36.029319 19.638584,-34.506167 Z"
             inkscape:connector-curvature="0" />
          <path
             style="color:#000000;color-interpolation:sRGB;color-interpolation-filters:linearRGB;fill:#ffffff;fill-opacity:1;fill-rule:nonzero;stroke:none;stroke-width:1px;marker:none;visibility:visible;display:inline;overflow:visible;enable-background:accumulate;clip-rule:nonzero;color-rendering:auto;image-rendering:auto;shape-rendering:auto;text-rendering:auto"
             id="path21098"
             d="m 22.94018,-32.439776 c -0.410617,0.08922 -0.811542,0.223006 -1.210767,0.353089 -1.080324,0.370436 -2.127101,0.829773 -3.176202,1.279007 -1.356315,0.586138 -2.710313,1.177717 -4.063061,1.772044 -1.163319,0.503302 -2.321359,1.018605 -3.478723,1.535408 -0.4002,0.182822 -0.80408,0.357195 -1.2091762,0.528798 -0.2106523,1.653791 -2.5494661,1.355884 -2.3388139,-0.297907 l 0,0 c 0.3739525,-0.175543 0.7465018,-0.353956 1.1172113,-0.536274 1.1080365,-0.535245 2.2199288,-1.062732 3.3471238,-1.556722 1.354441,-0.608052 2.716201,-1.200218 4.08507,-1.77506 1.112942,-0.458146 2.225204,-0.924369 3.376781,-1.27869 0.471898,-0.138369 0.946934,-0.266298 1.42998,-0.359775 C 21.057249,-34.275333 23.177826,-33.93925 22.94018,-32.439776 Z"
             inkscape:connector-curvature="0" />
          <path
             style="color:#000000;color-interpolation:sRGB;color-interpolation-filters:linearRGB;fill:#ffffff;fill-opacity:1;fill-rule:nonzero;stroke:none;stroke-width:1px;marker:none;visibility:visible;display:inline;overflow:visible;enable-background:accumulate;clip-rule:nonzero;color-rendering:auto;image-rendering:auto;shape-rendering:auto;text-rendering:auto"
             id="path21100"
             d="m 24.528291,-28.009626 c -0.377783,0.01166 -0.747646,0.123977 -1.110039,0.222267 -1.060214,0.313353 -2.086339,0.730161 -3.114887,1.132724 -1.618444,0.63942 -3.24369,1.260693 -4.876719,1.861837 -1.621175,0.59284 -3.252078,1.15803 -4.893184,1.693085 -1.1293756,0.361622 -2.2608728,0.71687 -3.4008888,1.043571 -1.2938604,0.410998 -2.191622,0.284782 -3.6830027,0.288844 -0.2686531,-1.555871 1.9316814,-1.935804 2.2003346,-0.379932 l 0,0 c -3.7153146,0.02244 -1.9000002,0.128342 -0.8955507,-0.245443 1.0715154,-0.34044 2.1367611,-0.699646 3.2005855,-1.063418 1.6031202,-0.548369 3.1987591,-1.117957 4.7904301,-1.698708 1.6676,-0.606621 3.328648,-1.230783 4.994143,-1.843065 1.111418,-0.405012 2.223253,-0.817232 3.365659,-1.127703 0.431957,-0.104989 0.864638,-0.211068 1.3083,-0.253154 C 22.674462,-29.874124 24.78928,-29.505029 24.528291,-28.009626 Z"
             inkscape:connector-curvature="0" />
        </g>
        <path
           inkscape:connector-curvature="0"
           d="m 25.98689,-19.074369 c 0.06048,-0.284038 0.207927,-0.538123 0.351471,-0.786827 0.369275,-0.601744 0.817409,-1.148647 1.278904,-1.680898 0.666581,-0.760655 1.445855,-1.4051 2.255166,-2.006302 0.770218,-0.567363 1.607177,-1.028567 2.476401,-1.423412 1.292157,-0.530124 2.826442,-0.755399 4.182866,-0.326574 0.645623,0.347119 0.810113,1.036324 0.911316,1.7082 0.09422,1.056259 -0.185291,2.071497 -0.549541,3.050653 -0.416666,1.046577 -1.0726,1.95716 -1.798613,2.807679 -0.594557,0.665442 -1.27181,1.247822 -1.957669,1.815769 -0.408667,0.326384 -0.811807,0.659609 -1.21879,0.988049 -0.16207,0.140568 -0.341634,0.260129 -0.506969,0.396208 -0.0085,0.0073 -0.01434,0.02319 -0.02548,0.02194 -2.395683,-0.270003 -2.565752,0.09818 -1.701324,-0.549406 0.389261,-0.300032 0.812327,-0.550297 1.24598,-0.77966 0.538809,-0.290462 1.122935,-0.446745 1.726871,-0.519711 1.996842,-0.0047 2.761316,-0.377468 4.110015,0.780826 0.777564,0.761663 1.191094,1.773144 1.560036,2.77573 0.418558,1.276375 0.66056,2.600597 0.854861,3.9268837 0.139726,1.0240976 0.232011,2.0537781 0.315609,3.0837144 0.04855,0.5978678 0.08922,1.1963091 0.129927,1.7947425 0.0143,0.21054 0.03267,0.4208377 0.03489,0.6319054 0.01459,1.5519575 -2.180211,1.5725881 -2.194799,0.020631 l 0,0 c -0.03476,-0.2084664 -0.07503,-0.416039 -0.102028,-0.6257622 -0.08834,-0.5969749 -0.170358,-1.1948226 -0.253444,-1.7925531 -0.14394,-1.024068 -0.286958,-2.0483819 -0.455537,-3.0687597 -0.224801,-1.303581 -0.46493,-2.608865 -0.844878,-3.877675 -0.315062,-0.951885 -0.655004,-1.928373 -1.393823,-2.641901 -0.27198,-0.219687 -0.525618,-0.407927 -0.863172,-0.516633 -0.753192,-0.242557 -2.407716,-0.03126 1.382246,-0.11583 -0.597867,0.03235 -1.180481,0.156278 -1.720939,0.42319 -0.453816,0.218316 -0.895089,0.461097 -1.318433,0.734333 -0.894887,0.59978 -0.890983,0.403124 -2.626466,0.09515 0.137874,-0.137396 0.265518,-0.287431 0.417593,-0.411502 0.372923,-0.329137 0.729905,-0.676228 1.111198,-0.996071 0.639751,-0.569541 1.275372,-1.145937 1.848364,-1.784094 0.705715,-0.827003 1.352584,-1.705592 1.771647,-2.717299 0.372616,-0.93363 0.67649,-1.901154 0.646775,-2.919287 -0.05132,-0.589003 -0.144726,-1.216491 -0.796871,-1.3998 -0.890833,-0.109409 -0.553145,-0.05653 1.736451,-0.04921 0.09745,3.12e-4 -0.195068,0.0085 -0.291443,0.02296 -0.347736,0.05205 -0.678085,0.180221 -1.001328,0.312732 -0.843963,0.381443 -1.654517,0.832143 -2.406088,1.375686 -0.813122,0.591852 -1.603358,1.218353 -2.297942,1.949113 -0.496308,0.520861 -0.977298,1.057138 -1.412753,1.630533 -0.170038,0.230304 -0.330611,0.466568 -0.467277,0.718424 C 28.076222,-17.483173 25.933237,-17.55905 25.98689,-19.074369 Z"
           id="path21126"
           style="color:#000000;color-interpolation:sRGB;color-interpolation-filters:linearRGB;fill:#ffffff;fill-opacity:1;fill-rule:nonzero;stroke:none;stroke-width:1px;marker:none;visibility:visible;display:inline;overflow:visible;enable-background:accumulate;clip-rule:nonzero;color-rendering:auto;image-rendering:auto;shape-rendering:auto;text-rendering:auto" />
        <path
           inkscape:connector-curvature="0"
           d="m 44.876421,-25.742043 c 0.188961,0.238906 0.340326,0.505333 0.498461,0.765017 0.233203,0.390711 0.476191,0.775373 0.720946,1.158897 0.182988,0.287064 0.365511,0.574423 0.547983,0.861816 0.103277,0.16268 0.206511,0.325389 0.309734,0.488105 0.05675,0.08874 0.123129,0.17031 0.132274,0.277553 -0.04718,0.998361 -1.754901,0.305336 -2.540855,0.09923 -0.415025,-0.122495 -0.844542,-0.180342 -1.272638,-0.234683 -0.312379,-0.03979 -0.626826,-0.06222 -0.941751,-0.06492 -0.115685,-9.9e-4 -0.462729,0.0027 -0.347046,0.0039 1.988152,0.02053 2.618742,-0.04203 1.593238,0.04231 -0.802318,0.06807 -1.548666,0.349047 -2.261217,0.70806 -0.775316,0.408338 -1.396699,1.006903 -1.93629,1.686745 -0.530314,0.706742 -0.791042,1.52958 -0.93991,2.38836 -0.117463,0.859836 0.03741,1.674141 0.404139,2.450982 0.484921,0.839925 1.088667,1.177518 2.002392,1.415114 0.163267,0.02374 0.325653,0.05463 0.4898,0.07122 0.173074,0.01749 0.347042,0.02687 0.52095,0.03094 0.181915,0.0043 0.72779,-0.0024 0.545861,-0.006 -0.625196,-0.01248 -1.25124,0.0093 -1.875851,-0.02055 -0.186852,-0.0089 0.373323,-0.02512 0.559601,-0.04226 0.187281,-0.01723 0.373952,-0.04055 0.560928,-0.06083 1.012463,-0.12813 2.017064,-0.308832 3.019048,-0.500743 0.134094,-0.0263 0.268189,-0.0526 0.402283,-0.0789 0.251297,-1.659262 2.597849,-1.303875 2.346552,0.355388 l 0,0 c -0.127004,0.02781 -0.254007,0.05563 -0.381011,0.08344 -0.974818,0.207774 -1.953477,0.398091 -2.941031,0.535728 -1.443173,0.178315 -2.497739,0.14421 -4.11607,0.14931 -0.512708,0.0016 -1.025016,-0.04388 -1.520894,-0.179805 -0.94385,-0.334092 -1.510118,-0.743866 -1.996267,-1.639073 -0.37142,-0.830038 -0.543596,-1.696427 -0.42024,-2.607906 0.146668,-0.900206 0.413178,-1.766105 0.948901,-2.517961 0.540706,-0.715681 1.161483,-1.355807 1.95182,-1.799166 0.724836,-0.392139 1.489805,-0.702691 2.314758,-0.802451 1.416885,-0.15184 2.866674,-0.138259 4.281525,0.04113 0.401473,0.06719 0.801274,0.146218 1.185603,0.283789 1.197651,0.405123 -2.001654,-0.681299 -1.771431,0.270714 -0.05438,-0.03127 -0.112842,-0.133673 -0.160998,-0.196841 -0.116509,-0.161855 -0.232924,-0.323779 -0.348761,-0.486117 -0.203354,-0.285462 -0.406015,-0.571475 -0.601543,-0.862383 -0.252341,-0.381193 -0.495366,-0.768815 -0.710322,-1.172587 -0.138984,-0.254022 -0.279404,-0.508491 -0.399815,-0.771854 C 42.642481,-27.137555 44.789625,-27.260304 44.876421,-25.742043 Z"
           id="path21136"
           style="color:#000000;color-interpolation:sRGB;color-interpolation-filters:linearRGB;fill:#ffffff;fill-opacity:1;fill-rule:nonzero;stroke:none;stroke-width:1px;marker:none;visibility:visible;display:inline;overflow:visible;enable-background:accumulate;clip-rule:nonzero;color-rendering:auto;image-rendering:auto;shape-rendering:auto;text-rendering:auto" />
        <path
           style="color:#000000;color-interpolation:sRGB;color-interpolation-filters:linearRGB;fill:#ffffff;fill-opacity:1;fill-rule:nonzero;stroke:none;stroke-width:1px;marker:none;visibility:visible;display:inline;overflow:visible;enable-background:accumulate;clip-rule:nonzero;color-rendering:auto;image-rendering:auto;shape-rendering:auto;text-rendering:auto"
           id="path21210"
           d="m 27.938518,-23.0282 c 0.02707,0.475427 -0.03058,0.953858 -0.0672,1.42738 -0.08651,1.172532 -0.193791,2.342971 -0.311528,3.512256 -0.145475,1.363142 -0.314821,2.723216 -0.494082,4.081582 -0.139069,1.077882 -0.30943,2.150246 -0.494005,3.219921 -0.01356,0.8495092 -2.231648,0.8079772 -2.218093,-0.04153 l 0,0 c 0.128477,-1.071258 0.256469,-2.142572 0.372923,-3.215459 0.156378,-1.359767 0.31056,-2.719841 0.478946,-4.077952 0.141374,-1.173878 0.281461,-2.348856 0.475604,-3.514144 0.08109,-0.466388 0.169524,-0.931504 0.275654,-1.392052 C 25.956739,-23.787203 27.938518,-23.787203 27.938518,-23.0282 Z"
           inkscape:connector-curvature="0" />
      </g>
    </g>
  </g>
</svg>
