<?xml version="1.0" encoding="UTF-8" standalone="no"?>
<!-- Created with Inkscape (http://www.inkscape.org/) -->

<svg
   xmlns:dc="http://purl.org/dc/elements/1.1/"
   xmlns:cc="http://creativecommons.org/ns#"
   xmlns:rdf="http://www.w3.org/1999/02/22-rdf-syntax-ns#"
   xmlns:svg="http://www.w3.org/2000/svg"
   xmlns="http://www.w3.org/2000/svg"
   xmlns:sodipodi="http://sodipodi.sourceforge.net/DTD/sodipodi-0.dtd"
   xmlns:inkscape="http://www.inkscape.org/namespaces/inkscape"
   id="svg7384"
   sodipodi:docname="interact-icons.svg"
   version="1.1"
   inkscape:version="0.49 r12379 custom"
   height="16"
   width="16"
   inkscape:export-filename="/home/tigert/git/gluster-site/images/interact-bugzilla.png"
   inkscape:export-xdpi="360"
   inkscape:export-ydpi="360">
  <metadata
     id="metadata90">
    <rdf:RDF>
      <cc:Work
         rdf:about="">
        <dc:format>image/svg+xml</dc:format>
        <dc:type
           rdf:resource="http://purl.org/dc/dcmitype/StillImage" />
        <dc:title>Gnome Symbolic Icon Theme</dc:title>
      </cc:Work>
    </rdf:RDF>
  </metadata>
  <sodipodi:namedview
     inkscape:cy="-99.628736"
     pagecolor="#f3f4f6"
     borderopacity="1"
     showborder="false"
     inkscape:bbox-paths="true"
     guidetolerance="10"
     inkscape:object-paths="false"
     inkscape:window-width="1598"
     showguides="true"
     inkscape:object-nodes="false"
     inkscape:snap-bbox="true"
     inkscape:pageshadow="2"
     inkscape:guide-bbox="true"
     inkscape:snap-nodes="false"
     bordercolor="#666666"
     objecttolerance="10"
     id="namedview88"
     showgrid="false"
     inkscape:window-maximized="0"
     inkscape:window-x="1656"
     inkscape:snap-global="false"
     inkscape:window-y="240"
     gridtolerance="10"
     inkscape:window-height="1166"
     inkscape:snap-others="true"
     inkscape:snap-to-guides="true"
     inkscape:current-layer="g5230"
     inkscape:snap-bbox-midpoints="true"
     inkscape:zoom="5.6568542"
     inkscape:cx="100.71446"
     inkscape:snap-grids="true"
     inkscape:pageopacity="0"
     inkscape:bbox-nodes="true"
     inkscape:snap-bbox-edge-midpoints="true"
     inkscape:snap-object-midpoints="true"
     inkscape:snap-center="true">
    <inkscape:grid
       spacingx="1px"
       spacingy="1px"
       id="grid4866"
       empspacing="2"
       enabled="true"
       type="xygrid"
       snapvisiblegridlinesonly="true"
       visible="true"
       color="#bbbbd4"
       opacity="0.25098039"
       empcolor="#bbbbd4"
       empopacity="0.37254902" />
  </sodipodi:namedview>
  <title
     id="title9167">Gnome Symbolic Icon Theme</title>
  <defs
     id="defs7386">
    <filter
       style="color-interpolation-filters:sRGB;"
       inkscape:label="Drop Shadow"
       id="filter4250">
      <feFlood
         flood-opacity="0.0941176"
         flood-color="rgb(0,0,0)"
         result="flood"
         id="feFlood4252" />
      <feComposite
         in="flood"
         in2="SourceGraphic"
         operator="in"
         result="composite1"
         id="feComposite4254" />
      <feGaussianBlur
         in="composite1"
         stdDeviation="1"
         result="blur"
         id="feGaussianBlur4256" />
      <feOffset
         dx="0"
         dy="1"
         result="offset"
         id="feOffset4258" />
      <feComposite
         in="SourceGraphic"
         in2="offset"
         operator="over"
         result="composite2"
         id="feComposite4260" />
    </filter>
    <filter
       style="color-interpolation-filters:sRGB;"
       inkscape:label="Drop Shadow"
       id="filter4262">
      <feFlood
         flood-opacity="0.0941176"
         flood-color="rgb(0,0,0)"
         result="flood"
         id="feFlood4264" />
      <feComposite
         in="flood"
         in2="SourceGraphic"
         operator="in"
         result="composite1"
         id="feComposite4266" />
      <feGaussianBlur
         in="composite1"
         stdDeviation="1"
         result="blur"
         id="feGaussianBlur4268" />
      <feOffset
         dx="0"
         dy="1"
         result="offset"
         id="feOffset4270" />
      <feComposite
         in="SourceGraphic"
         in2="offset"
         operator="over"
         result="composite2"
         id="feComposite4272" />
    </filter>
    <filter
       style="color-interpolation-filters:sRGB;"
       inkscape:label="Drop Shadow"
       id="filter4283">
      <feFlood
         flood-opacity="0.0941176"
         flood-color="rgb(0,0,0)"
         result="flood"
         id="feFlood4285" />
      <feComposite
         in="flood"
         in2="SourceGraphic"
         operator="in"
         result="composite1"
         id="feComposite4287" />
      <feGaussianBlur
         in="composite1"
         stdDeviation="1"
         result="blur"
         id="feGaussianBlur4289" />
      <feOffset
         dx="0"
         dy="1"
         result="offset"
         id="feOffset4291" />
      <feComposite
         in="SourceGraphic"
         in2="offset"
         operator="over"
         result="composite2"
         id="feComposite4293" />
    </filter>
    <filter
       style="color-interpolation-filters:sRGB;"
       inkscape:label="Drop Shadow"
       id="filter4322">
      <feFlood
         flood-opacity="0.0941176"
         flood-color="rgb(0,0,0)"
         result="flood"
         id="feFlood4324" />
      <feComposite
         in="flood"
         in2="SourceGraphic"
         operator="in"
         result="composite1"
         id="feComposite4326" />
      <feGaussianBlur
         in="composite1"
         stdDeviation="1"
         result="blur"
         id="feGaussianBlur4328" />
      <feOffset
         dx="0"
         dy="1"
         result="offset"
         id="feOffset4330" />
      <feComposite
         in="SourceGraphic"
         in2="offset"
         operator="over"
         result="composite2"
         id="feComposite4332" />
    </filter>
    <filter
       style="color-interpolation-filters:sRGB;"
       inkscape:label="Drop Shadow"
       id="filter4352">
      <feFlood
         flood-opacity="0.0941176"
         flood-color="rgb(0,0,0)"
         result="flood"
         id="feFlood4354" />
      <feComposite
         in="flood"
         in2="SourceGraphic"
         operator="in"
         result="composite1"
         id="feComposite4356" />
      <feGaussianBlur
         in="composite1"
         stdDeviation="1"
         result="blur"
         id="feGaussianBlur4358" />
      <feOffset
         dx="0"
         dy="1"
         result="offset"
         id="feOffset4360" />
      <feComposite
         in="SourceGraphic"
         in2="offset"
         operator="over"
         result="composite2"
         id="feComposite4362" />
    </filter>
    <filter
       style="color-interpolation-filters:sRGB;"
       inkscape:label="Drop Shadow"
       id="filter5236">
      <feFlood
         flood-opacity="0.0941176"
         flood-color="rgb(0,0,0)"
         result="flood"
         id="feFlood5238" />
      <feComposite
         in="flood"
         in2="SourceGraphic"
         operator="in"
         result="composite1"
         id="feComposite5240" />
      <feGaussianBlur
         in="composite1"
         stdDeviation="1"
         result="blur"
         id="feGaussianBlur5242" />
      <feOffset
         dx="0"
         dy="1"
         result="offset"
         id="feOffset5244" />
      <feComposite
         in="SourceGraphic"
         in2="offset"
         operator="over"
         result="composite2"
         id="feComposite5246" />
    </filter>
    <filter
       style="color-interpolation-filters:sRGB;"
       inkscape:label="Drop Shadow"
       id="filter5354">
      <feFlood
         flood-opacity="0.0941176"
         flood-color="rgb(0,0,0)"
         result="flood"
         id="feFlood5356" />
      <feComposite
         in="flood"
         in2="SourceGraphic"
         operator="in"
         result="composite1"
         id="feComposite5358" />
      <feGaussianBlur
         in="composite1"
         stdDeviation="1"
         result="blur"
         id="feGaussianBlur5360" />
      <feOffset
         dx="0"
         dy="1"
         result="offset"
         id="feOffset5362" />
      <feComposite
         in="SourceGraphic"
         in2="offset"
         operator="over"
         result="composite2"
         id="feComposite5364" />
    </filter>
  </defs>
  <g
     inkscape:label="places"
     transform="translate(-61.0002,-177)"
     inkscape:groupmode="layer"
     id="layer9"
     style="display:inline">
    <rect
       inkscape:export-ydpi="180"
       inkscape:export-xdpi="180"
       inkscape:export-filename="/home/tigert/git/gluster-site/images/interact-twitter.png"
       ry="0.98524475"
       rx="0.98524475"
       y="339"
       x="61.000198"
       height="64"
       width="64"
       id="rect5259"
       style="color:#000000;color-interpolation:sRGB;color-interpolation-filters:linearRGB;fill:#000000;fill-opacity:0;stroke:none;stroke-width:0.99999994px;marker:none;visibility:visible;display:inline;overflow:visible;enable-background:accumulate;clip-rule:nonzero;color-rendering:auto;image-rendering:auto;shape-rendering:auto;text-rendering:auto" />
    <rect
       inkscape:export-ydpi="180"
       inkscape:export-xdpi="180"
       inkscape:export-filename="/home/tigert/git/gluster-site/images/interact-twitter.png"
       ry="0.98524475"
       rx="0.98524475"
       y="199"
       x="201.00018"
       height="64"
       width="64"
       id="rect21587"
       style="color:#000000;color-interpolation:sRGB;color-interpolation-filters:linearRGB;fill:#000000;fill-opacity:0;stroke:none;stroke-width:0.99999994px;marker:none;visibility:visible;display:inline;overflow:visible;enable-background:accumulate;clip-rule:nonzero;color-rendering:auto;image-rendering:auto;shape-rendering:auto;text-rendering:auto" />
    <rect
       style="color:#000000;color-interpolation:sRGB;color-interpolation-filters:linearRGB;fill:#000000;fill-opacity:0;stroke:none;stroke-width:0.99999994px;marker:none;visibility:visible;display:inline;overflow:visible;enable-background:accumulate;clip-rule:nonzero;color-rendering:auto;image-rendering:auto;shape-rendering:auto;text-rendering:auto"
       id="rect20913"
       width="64"
       height="64"
       x="61.000198"
       y="269"
       rx="0.98524475"
       ry="0.98524475"
       inkscape:export-filename="/home/tigert/git/gluster-site/images/interact-twitter.png"
       inkscape:export-xdpi="180"
       inkscape:export-ydpi="180" />
    <rect
       style="color:#000000;color-interpolation:sRGB;color-interpolation-filters:linearRGB;fill:#000000;fill-opacity:0;stroke:none;stroke-width:0.99999994px;marker:none;visibility:visible;display:inline;overflow:visible;enable-background:accumulate;clip-rule:nonzero;color-rendering:auto;image-rendering:auto;shape-rendering:auto;text-rendering:auto"
       id="rect20793"
       width="64"
       height="64"
       x="61.000198"
       y="129"
       rx="0.98524475"
       ry="0.98524475"
       inkscape:export-filename="/home/tigert/git/gluster-site/images/interact-twitter.png"
       inkscape:export-xdpi="180"
       inkscape:export-ydpi="180" />
    <rect
       inkscape:export-ydpi="275.62"
       inkscape:export-xdpi="275.62"
       inkscape:export-filename="/home/tigert/git/gluster-site/images/interact-twitter.png"
       ry="0.98524475"
       rx="0.98524475"
       y="199"
       x="61.000198"
       height="64"
       width="64"
       id="rect20907"
       style="color:#000000;color-interpolation:sRGB;color-interpolation-filters:linearRGB;fill:#000000;fill-opacity:0;stroke:none;stroke-width:0.99999994px;marker:none;visibility:visible;display:inline;overflow:visible;enable-background:accumulate;clip-rule:nonzero;color-rendering:auto;image-rendering:auto;shape-rendering:auto;text-rendering:auto" />
    <rect
       style="color:#000000;color-interpolation:sRGB;color-interpolation-filters:linearRGB;fill:#000000;fill-opacity:0;stroke:none;stroke-width:0.99999994px;marker:none;visibility:visible;display:inline;overflow:visible;enable-background:accumulate;clip-rule:nonzero;color-rendering:auto;image-rendering:auto;shape-rendering:auto;text-rendering:auto"
       id="rect20909"
       width="64"
       height="64"
       x="131.0002"
       y="199"
       rx="0.98524475"
       ry="0.98524475"
       inkscape:export-filename="/home/tigert/git/gluster-site/images/interact-twitter.png"
       inkscape:export-xdpi="180"
       inkscape:export-ydpi="180" />
    <rect
       inkscape:export-ydpi="180"
       inkscape:export-xdpi="180"
       inkscape:export-filename="/home/tigert/git/gluster-site/images/interact-twitter.png"
       ry="0.98524475"
       rx="0.98524475"
       y="269"
       x="131.0002"
       height="64"
       width="64"
       id="rect20915"
       style="color:#000000;color-interpolation:sRGB;color-interpolation-filters:linearRGB;fill:#000000;fill-opacity:0;stroke:none;stroke-width:0.99999994px;marker:none;visibility:visible;display:inline;overflow:visible;enable-background:accumulate;clip-rule:nonzero;color-rendering:auto;image-rendering:auto;shape-rendering:auto;text-rendering:auto" />
    <g
       id="g4101"
       style="filter:url(#filter4250)">
      <path
         style="color:#000000;color-interpolation:sRGB;color-interpolation-filters:linearRGB;fill:#ffffff;fill-opacity:1;fill-rule:nonzero;stroke:none;stroke-width:1px;marker:none;visibility:visible;display:inline;overflow:visible;enable-background:accumulate;clip-rule:nonzero;color-rendering:auto;image-rendering:auto;shape-rendering:auto;text-rendering:auto"
         d="m 70.0839,226.21694 c -0.53993,0.08 -0.89626,0.56041 -0.81622,1.10034 l 4.2479,28.6556 c 0.08,0.53992 0.56498,0.92718 1.10491,0.84714 l 44.57539,-6.60784 c 0.53993,-0.08 0.89168,-0.59133 0.81164,-1.13125 l -4.2479,-28.65561 c -0.08,-0.53993 -0.5604,-0.89626 -1.10033,-0.81622 L 70.0839,226.21694 z m 0.006,1.9578 23.43143,9.09995 c 1.38214,0.51066 2.63227,0.21848 3.77129,-0.55906 l 17.90051,-14.7847 -15.53169,14.78106 18.6036,12.1218 -19.3775,-11.37525 -1.30165,1.23547 c -1.13902,0.77754 -2.38914,1.06972 -3.77129,0.55906 L 90.96136,237.90691 75.23527,255.21251 90.11524,237.52687 70.0898,228.17474 Z"
         id="path21489"
         inkscape:connector-curvature="0" />
      <path
         inkscape:connector-curvature="0"
         id="path21491"
         d="m 90.85453,203.06809 c -0.22055,-0.0646 -0.44151,0.0562 -0.50614,0.27675 l -3.43006,11.7051 c -0.0646,0.22055 0.0524,0.45414 0.27303,0.51877 l 18.20796,5.33565 c 0.22052,0.0647 0.44521,-0.0688 0.50983,-0.28935 l 3.43007,-11.70512 c 0.0646,-0.22056 -0.0562,-0.44151 -0.27673,-0.50614 L 90.85453,203.06809 z m -0.34289,0.74965 7.35353,7.61192 c 0.43835,0.43902 0.96785,0.5478 1.54047,0.45142 l 9.45156,-2.49541 -8.54525,2.91182 4.97471,7.91576 -5.40227,-7.76683 -0.71557,0.24278 c -0.57262,0.0964 -1.10211,-0.0124 -1.54048,-0.45142 l -0.85345,-1.01792 -9.06484,3.84274 8.80839,-4.13728 L 90.51148,203.81766 Z"
         style="color:#000000;color-interpolation:sRGB;color-interpolation-filters:linearRGB;fill:#ffffff;fill-opacity:1;fill-rule:nonzero;stroke:none;stroke-width:1px;marker:none;visibility:visible;display:inline;overflow:visible;enable-background:accumulate;clip-rule:nonzero;color-rendering:auto;image-rendering:auto;shape-rendering:auto;text-rendering:auto" />
      <path
         style="color:#000000;color-interpolation:sRGB;color-interpolation-filters:linearRGB;fill:#ffffff;fill-opacity:1;fill-rule:nonzero;stroke:none;stroke-width:1px;marker:none;visibility:visible;display:inline;overflow:visible;enable-background:accumulate;clip-rule:nonzero;color-rendering:auto;image-rendering:auto;shape-rendering:auto;text-rendering:auto"
         d="m 70.36021,213.49742 c -0.15592,0.0459 -0.24116,0.20232 -0.19522,0.35826 l 2.43761,8.27546 c 0.0459,0.15592 0.20493,0.25009 0.36089,0.20415 l 12.87293,-3.79184 c 0.15593,-0.0459 0.23853,-0.21124 0.19259,-0.36718 l -2.4376,-8.27547 c -0.046,-0.15592 -0.20233,-0.24115 -0.35826,-0.19521 L 70.36021,213.49742 z m 0.0828,0.57713 7.28665,1.71493 c 0.42873,0.0935 0.78533,-0.0444 1.0891,-0.3208 l 4.66791,-5.10043 -3.96945,5.00141 5.98777,2.80576 -6.18514,-2.5536 -0.3328,0.4182 c -0.30377,0.2764 -0.66038,0.41425 -1.0891,0.32081 l -0.89714,-0.27904 -3.9224,5.75398 3.65715,-5.83108 L 70.4429,214.07457 Z"
         id="path21493"
         inkscape:connector-curvature="0" />
    </g>
    <g
       id="g4334"
       style="filter:url(#filter4352)">
      <path
         style="color:#000000;color-interpolation:sRGB;color-interpolation-filters:linearRGB;fill:#ffffff;fill-opacity:1;fill-rule:nonzero;stroke:none;stroke-width:1px;marker:none;visibility:visible;display:inline;overflow:visible;enable-background:accumulate;clip-rule:nonzero;color-rendering:auto;image-rendering:auto;shape-rendering:auto;text-rendering:auto"
         d="m 210.0839,226.21694 c -0.53993,0.08 -0.89626,0.56041 -0.81622,1.10034 l 4.2479,28.6556 c 0.08,0.53992 0.56498,0.92718 1.10491,0.84714 l 44.57539,-6.60784 c 0.53993,-0.08 0.89168,-0.59133 0.81164,-1.13125 l -4.2479,-28.65561 c -0.08,-0.53993 -0.5604,-0.89626 -1.10033,-0.81622 L 210.0839,226.21694 z m 0.006,1.9578 23.43143,9.09995 c 1.38214,0.51066 2.63227,0.21848 3.77129,-0.55906 l 17.90051,-14.7847 -15.53169,14.78106 18.6036,12.1218 -19.3775,-11.37525 -1.30165,1.23547 c -1.13902,0.77754 -2.38914,1.06972 -3.77129,0.55906 l -2.85324,-1.34616 -15.72609,17.3056 14.87997,-17.68564 L 210.0898,228.17474 Z"
         id="path21619"
         inkscape:connector-curvature="0" />
      <path
         style="color:#000000;color-interpolation:sRGB;color-interpolation-filters:linearRGB;fill:#ffffff;fill-opacity:1;fill-rule:nonzero;stroke:none;stroke-width:1px;marker:none;visibility:visible;display:inline;overflow:visible;enable-background:accumulate;clip-rule:nonzero;color-rendering:auto;image-rendering:auto;shape-rendering:auto;text-rendering:auto"
         d="m 243.72332,203.3952 c -0.17744,-0.0524 -0.35552,0.0446 -0.40786,0.22209 l -2.77789,9.41866 c -0.0524,0.17744 0.0416,0.36567 0.2191,0.41801 l 14.65123,4.32115 c 0.17746,0.0524 0.35851,-0.0547 0.41086,-0.23223 l 2.77789,-9.41867 c 0.0522,-0.17751 -0.0446,-0.35551 -0.22208,-0.40785 L 243.72332,203.3952 z m -0.27712,0.60303 5.90946,6.13847 c 0.35226,0.35409 0.77841,0.44237 1.23955,0.36557 l 7.6127,-1.99572 -6.88364,2.33223 3.99389,6.37976 -4.33831,-6.26047 -0.57643,0.19447 c -0.46114,0.0768 -0.88726,-0.0115 -1.23956,-0.36558 l -0.68567,-0.8207 -7.30324,3.08096 7.0972,-3.31844 L 243.44609,203.99818 Z"
         id="path21589"
         inkscape:connector-curvature="0" />
      <g
         id="g21591"
         transform="matrix(0.49903908,-0.20656419,0.20656419,0.49903908,92.03802,130.64473)">
        <path
           transform="translate(61.0002,177)"
           id="path21593"
           d="m 123.65625,42.59375 -44.5625,6.625 c -0.53993,0.08 -0.89254,0.55382 -0.8125,1.09375 L 82.5,78.96875 c 0.08,0.53992 0.58507,0.92379 1.125,0.84375 l 44.5625,-6.59375 c 0.53993,-0.08 0.89254,-0.58508 0.8125,-1.125 L 124.75,43.4375 C 124.67,42.89757 124.19618,42.51371 123.65625,42.59375 z m -0.4375,1.53125 4.03125,27.71875 c -4.4475,-0.28582 -8.2279,-1.71972 -12.875,-1.65625 -1.48282,-1.710603 -0.79404,-5.753946 -0.6875,-8.21875 0.0376,0.01658 0.0831,0.03125 0.125,0.03125 0.20747,0 0.375,-0.219311 0.375,-0.5 0,-0.190869 -0.0725,-0.350617 -0.1875,-0.4375 0.9119,0.149049 2.32167,1.344348 3.375,2.59375 -0.17678,-1.59099 -1.39921,-3.801776 -3.34375,-3.625 0.69116,-1.166091 2.13496,-1.623377 4.6875,0.0625 -1.2701,-2.06688 -3.08303,-2.220884 -4.34375,-1.0625 0.35356,-1.59099 2.47688,-2.385723 4.15625,-2.5625 -3.27036,-0.265165 -4.14736,0.898287 -5.03125,2.3125 -0.1768,-0.618718 0.15625,-5.21875 0.15625,-5.21875 0,0 -1.05715,1.813577 -0.96875,5.4375 -1.41421,-1.679379 -4.93823,-0.171003 -5.8125,1.46875 -0.81196,1.522895 2.44764,-3.417022 5.46875,-0.4375 -2.65165,-0.707107 -4.94285,1.66269 -5.03125,5.375 0.0831,-0.49851 1.63661,-5.683753 4.6875,-4.46875 -0.14602,0.09317 -0.21875,0.245827 -0.21875,0.4375 0,0.292893 0.21931,0.53125 0.5,0.53125 0.11638,0 0.19723,-0.05615 0.28125,-0.125 0.22082,2.252496 -0.83134,6.019239 -0.6875,8.5 -2.33338,0.14829 -9.16527,1.437 -11.09375,3.375 -1.39816,-1.24398 -4.95234,2.99455 -5.6875,0.4375 -1.62875,0.8265 -3.70821,2.69746 -5.3125,0.84375 -2.99683,1.7063 -2.98376,1.63722 -5.53125,3.28125 L 79.625,50.5625 123.21875,44.125 Z"
           style="color:#000000;color-interpolation:sRGB;color-interpolation-filters:linearRGB;fill:#ffffff;fill-opacity:1;fill-rule:nonzero;stroke:none;stroke-width:1px;marker:none;visibility:visible;display:inline;overflow:visible;enable-background:accumulate;clip-rule:nonzero;color-rendering:auto;image-rendering:auto;shape-rendering:auto;text-rendering:auto"
           inkscape:connector-curvature="0" />
        <g
           transform="matrix(1.3035866,0,0,1.3035866,-64.89585,-58.832571)"
           id="g21595">
          <path
             sodipodi:type="arc"
             style="color:#000000;color-interpolation:sRGB;color-interpolation-filters:linearRGB;fill:#ffffff;fill-opacity:1;fill-rule:nonzero;stroke:none;stroke-width:1px;marker:none;visibility:visible;display:inline;overflow:visible;enable-background:accumulate;clip-rule:nonzero;color-rendering:auto;image-rendering:auto;shape-rendering:auto;text-rendering:auto"
             id="path21597"
             sodipodi:cx="104.96117"
             sodipodi:cy="55.951534"
             sodipodi:rx="1.2374369"
             sodipodi:ry="1.2374369"
             d="m 106.1986,55.951534 c 0,0.683418 -0.55402,1.237437 -1.23743,1.237437 -0.68342,0 -1.23744,-0.554019 -1.23744,-1.237437 0,-0.683417 0.55402,-1.237437 1.23744,-1.237437 C 105.64458,54.714097 106.1986,55.268117 106.1986,55.951534 Z"
             transform="translate(61.0002,177)" />
          <path
             sodipodi:type="arc"
             style="color:#000000;color-interpolation:sRGB;color-interpolation-filters:linearRGB;fill:#ffffff;fill-opacity:1;fill-rule:nonzero;stroke:none;stroke-width:1px;marker:none;visibility:visible;display:inline;overflow:visible;enable-background:accumulate;clip-rule:nonzero;color-rendering:auto;image-rendering:auto;shape-rendering:auto;text-rendering:auto"
             id="path21599"
             sodipodi:cx="101.00578"
             sodipodi:cy="56.72493"
             sodipodi:rx="1.0827572"
             sodipodi:ry="1.0827572"
             d="m 102.08854,56.72493 c 0,0.59799 -0.48477,1.082757 -1.08276,1.082757 -0.59799,0 -1.082754,-0.484767 -1.082754,-1.082757 0,-0.59799 0.484764,-1.082757 1.082754,-1.082757 C 101.60377,55.642173 102.08854,56.12694 102.08854,56.72493 Z"
             transform="translate(61.0002,177)" />
          <path
             sodipodi:type="arc"
             style="color:#000000;color-interpolation:sRGB;color-interpolation-filters:linearRGB;fill:#ffffff;fill-opacity:1;fill-rule:nonzero;stroke:none;stroke-width:1px;marker:none;visibility:visible;display:inline;overflow:visible;enable-background:accumulate;clip-rule:nonzero;color-rendering:auto;image-rendering:auto;shape-rendering:auto;text-rendering:auto"
             id="path21601"
             sodipodi:cx="101.88967"
             sodipodi:cy="55.354912"
             sodipodi:rx="2.0108349"
             sodipodi:ry="1.8782524"
             d="m 103.90051,55.354912 c 0,1.03733 -0.90029,1.878252 -2.01084,1.878252 -1.11055,0 -2.010834,-0.840922 -2.010834,-1.878252 0,-1.03733 0.900284,-1.878253 2.010834,-1.878253 C 103.00022,53.476659 103.90051,54.317582 103.90051,55.354912 Z"
             transform="translate(62.016666,177.66291)" />
          <path
             sodipodi:type="arc"
             style="color:#000000;color-interpolation:sRGB;color-interpolation-filters:linearRGB;fill:#ffffff;fill-opacity:1;fill-rule:nonzero;stroke:none;stroke-width:1px;marker:none;visibility:visible;display:inline;overflow:visible;enable-background:accumulate;clip-rule:nonzero;color-rendering:auto;image-rendering:auto;shape-rendering:auto;text-rendering:auto"
             id="path21603"
             sodipodi:cx="103.50275"
             sodipodi:cy="54.581512"
             sodipodi:rx="1.4584078"
             sodipodi:ry="1.4584078"
             d="m 104.96115,54.581512 c 0,0.805457 -0.65295,1.458408 -1.4584,1.458408 -0.80546,0 -1.45841,-0.652951 -1.45841,-1.458408 0,-0.805456 0.65295,-1.458407 1.45841,-1.458407 C 104.3082,53.123105 104.96115,53.776056 104.96115,54.581512 Z"
             transform="translate(61.0002,177)" />
          <path
             sodipodi:type="arc"
             style="color:#000000;color-interpolation:sRGB;color-interpolation-filters:linearRGB;fill:#ffffff;fill-opacity:1;fill-rule:nonzero;stroke:none;stroke-width:1px;marker:none;visibility:visible;display:inline;overflow:visible;enable-background:accumulate;clip-rule:nonzero;color-rendering:auto;image-rendering:auto;shape-rendering:auto;text-rendering:auto"
             id="path21605"
             sodipodi:cx="100.8953"
             sodipodi:cy="54.890873"
             sodipodi:rx="0.92807764"
             sodipodi:ry="0.92807764"
             d="m 101.82338,54.890873 c 0,0.512563 -0.41552,0.928078 -0.92808,0.928078 -0.51256,0 -0.928076,-0.415515 -0.928076,-0.928078 0,-0.512563 0.415516,-0.928078 0.928076,-0.928078 C 101.40786,53.962795 101.82338,54.37831 101.82338,54.890873 Z"
             transform="translate(61.0002,177)" />
        </g>
        <g
           transform="matrix(0.66356386,0,0,0.66356386,41.625604,90.864962)"
           id="g21607">
          <path
             sodipodi:type="arc"
             style="color:#000000;color-interpolation:sRGB;color-interpolation-filters:linearRGB;fill:#ffffff;fill-opacity:1;fill-rule:nonzero;stroke:none;stroke-width:1px;marker:none;visibility:visible;display:inline;overflow:visible;enable-background:accumulate;clip-rule:nonzero;color-rendering:auto;image-rendering:auto;shape-rendering:auto;text-rendering:auto"
             id="path21609"
             sodipodi:cx="109.18171"
             sodipodi:cy="54.29425"
             sodipodi:rx="1.4805049"
             sodipodi:ry="1.4805049"
             d="m 110.66221,54.29425 c 0,0.817661 -0.66284,1.480505 -1.4805,1.480505 -0.81766,0 -1.48051,-0.662844 -1.48051,-1.480505 0,-0.81766 0.66285,-1.480504 1.48051,-1.480504 C 109.99937,52.813746 110.66221,53.47659 110.66221,54.29425 Z"
             transform="translate(61.0002,177)" />
          <path
             sodipodi:type="arc"
             style="color:#000000;color-interpolation:sRGB;color-interpolation-filters:linearRGB;fill:#ffffff;fill-opacity:1;fill-rule:nonzero;stroke:none;stroke-width:1px;marker:none;visibility:visible;display:inline;overflow:visible;enable-background:accumulate;clip-rule:nonzero;color-rendering:auto;image-rendering:auto;shape-rendering:auto;text-rendering:auto"
             id="path21611"
             sodipodi:cx="110.7506"
             sodipodi:cy="53.653435"
             sodipodi:rx="1.767767"
             sodipodi:ry="1.767767"
             d="m 112.51837,53.653435 c 0,0.97631 -0.79146,1.767767 -1.76777,1.767767 -0.97631,0 -1.76776,-0.791457 -1.76776,-1.767767 0,-0.976311 0.79145,-1.767767 1.76776,-1.767767 C 111.72691,51.885668 112.51837,52.677124 112.51837,53.653435 Z"
             transform="translate(61.0002,177)" />
          <path
             sodipodi:type="arc"
             style="color:#000000;color-interpolation:sRGB;color-interpolation-filters:linearRGB;fill:#ffffff;fill-opacity:1;fill-rule:nonzero;stroke:none;stroke-width:1px;marker:none;visibility:visible;display:inline;overflow:visible;enable-background:accumulate;clip-rule:nonzero;color-rendering:auto;image-rendering:auto;shape-rendering:auto;text-rendering:auto"
             id="path21613"
             sodipodi:cx="112.65095"
             sodipodi:cy="54.139572"
             sodipodi:rx="1.016466"
             sodipodi:ry="1.016466"
             d="m 113.66741,54.139572 c 0,0.561379 -0.45508,1.016466 -1.01646,1.016466 -0.56138,0 -1.01647,-0.455087 -1.01647,-1.016466 0,-0.561379 0.45509,-1.016466 1.01647,-1.016466 C 113.21233,53.123106 113.66741,53.578193 113.66741,54.139572 Z"
             transform="translate(61.0002,177)" />
          <path
             sodipodi:type="arc"
             style="color:#000000;color-interpolation:sRGB;color-interpolation-filters:linearRGB;fill:#ffffff;fill-opacity:1;fill-rule:nonzero;stroke:none;stroke-width:1px;marker:none;visibility:visible;display:inline;overflow:visible;enable-background:accumulate;clip-rule:nonzero;color-rendering:auto;image-rendering:auto;shape-rendering:auto;text-rendering:auto"
             id="path21615"
             sodipodi:cx="112.78353"
             sodipodi:cy="50.427261"
             sodipodi:rx="1.016466"
             sodipodi:ry="1.016466"
             d="m 113.8,50.427261 c 0,0.561379 -0.45509,1.016466 -1.01647,1.016466 -0.56138,0 -1.01646,-0.455087 -1.01646,-1.016466 0,-0.561378 0.45508,-1.016466 1.01646,-1.016466 C 113.34491,49.410795 113.8,49.865883 113.8,50.427261 Z"
             transform="translate(62.370219,178.98873)" />
        </g>
        <path
           sodipodi:type="arc"
           style="color:#000000;color-interpolation:sRGB;color-interpolation-filters:linearRGB;fill:#ffffff;fill-opacity:1;fill-rule:nonzero;stroke:none;stroke-width:1px;marker:none;visibility:visible;display:inline;overflow:visible;enable-background:accumulate;clip-rule:nonzero;color-rendering:auto;image-rendering:auto;shape-rendering:auto;text-rendering:auto"
           id="path21617"
           sodipodi:cx="89.53125"
           sodipodi:cy="31.5"
           sodipodi:rx="1.40625"
           sodipodi:ry="1.40625"
           d="m 90.9375,31.5 c 0,0.77665 -0.6296,1.40625 -1.40625,1.40625 -0.77665,0 -1.40625,-0.6296 -1.40625,-1.40625 0,-0.77665 0.6296,-1.40625 1.40625,-1.40625 C 90.3079,30.09375 90.9375,30.72335 90.9375,31.5 Z"
           transform="matrix(4.2317603,0.93326458,-0.93326458,4.2317603,-190.8361,15.862452)" />
      </g>
    </g>
    <g
       id="g4274"
       style="filter:url(#filter4283)">
      <g
         transform="translate(3,4)"
         id="g21636">
        <path
           sodipodi:nodetypes="ssscssssss"
           inkscape:connector-curvature="0"
           id="rect21626"
           d="m 146.81426,220.25 37.81859,0 c 0.23136,0 0.41761,0.18625 0.41761,0.41761 l 0,2.20739 c -6.47826,0.89262 -9.80413,6.7456 -11,10.20739 -0.0755,0.21868 -0.18625,0.41761 -0.41761,0.41761 l -26.81859,0 c -0.23136,0 -0.41761,-0.18625 -0.41761,-0.41761 l 0,-12.41478 C 146.39665,220.43625 146.5829,220.25 146.81426,220.25 Z"
           style="color:#000000;color-interpolation:sRGB;color-interpolation-filters:linearRGB;fill:#ffffff;fill-opacity:1;fill-rule:nonzero;stroke:none;stroke-width:1px;marker:none;visibility:visible;display:inline;overflow:visible;enable-background:accumulate;clip-rule:nonzero;color-rendering:auto;image-rendering:auto;shape-rendering:auto;text-rendering:auto" />
        <path
           style="color:#000000;color-interpolation:sRGB;color-interpolation-filters:linearRGB;fill:#ffffff;fill-opacity:1;fill-rule:nonzero;stroke:none;stroke-width:1px;marker:none;visibility:visible;display:inline;overflow:visible;enable-background:accumulate;clip-rule:nonzero;color-rendering:auto;image-rendering:auto;shape-rendering:auto;text-rendering:auto"
           d="m 156.5002,226.9205 c 0,2.7175 -4.64505,4.92049 -10.375,4.92049 -5.72995,0 -10.79037,-6.02108 -10.79037,-8.73858 0,-0.82306 5.06042,-1.10241 10.79037,-1.10241 C 151.85515,222 156.5002,224.20297 156.5002,226.9205 Z"
           id="path21628"
           inkscape:connector-curvature="0"
           sodipodi:nodetypes="sssss" />
        <path
           style="color:#000000;color-interpolation:sRGB;color-interpolation-filters:linearRGB;fill:#ffffff;fill-opacity:1;fill-rule:nonzero;stroke:none;stroke-width:1px;marker:none;visibility:visible;display:inline;overflow:visible;enable-background:accumulate;clip-rule:nonzero;color-rendering:auto;image-rendering:auto;shape-rendering:auto;text-rendering:auto"
           d="m 147.16782,246.46841 30.81859,0 c 0.23136,0 0.41761,-0.18625 0.41761,-0.4176 l 0,-3.00147 c 0,-0.23135 -0.18702,-0.39878 -0.41761,-0.41761 -5.67874,-0.46374 -10.27286,-0.73531 -10.27286,-10 l -10.27287,0 c -0.0875,9.37143 -4.5941,9.25448 -10.27286,10 -0.22939,0.0301 -0.41761,0.18626 -0.41761,0.41761 l 0,3.00147 C 146.75021,246.28216 146.93646,246.46841 147.16782,246.46841 Z"
           id="rect21633"
           inkscape:connector-curvature="0"
           sodipodi:nodetypes="sssssccssss" />
      </g>
      <g
         transform="matrix(0.98049428,-0.19654758,0.19654758,0.98049428,-37.140304,36.906674)"
         id="g21646">
        <rect
           style="color:#000000;color-interpolation:sRGB;color-interpolation-filters:linearRGB;fill:#ffffff;fill-opacity:1;fill-rule:nonzero;stroke:none;stroke-width:1px;marker:none;visibility:visible;display:inline;overflow:visible;enable-background:accumulate;clip-rule:nonzero;color-rendering:auto;image-rendering:auto;shape-rendering:auto;text-rendering:auto"
           id="rect21641"
           width="36.416"
           height="3.7123106"
           x="81.140503"
           y="33.854446"
           transform="translate(61.0002,177)"
           rx="0.45491466"
           ry="0.45491466" />
        <path
           style="color:#000000;color-interpolation:sRGB;color-interpolation-filters:linearRGB;fill:#ffffff;fill-opacity:1;fill-rule:nonzero;stroke:none;stroke-width:1px;marker:none;visibility:visible;display:inline;overflow:visible;enable-background:accumulate;clip-rule:nonzero;color-rendering:auto;image-rendering:auto;shape-rendering:auto;text-rendering:auto"
           d="m 171.11733,206.43503 4.16124,0 c 0.25202,0 0.36858,0.21814 0.45491,0.45491 l 2,3.48506 0,8.15626 c 0,0.25202 -0.20289,0.45491 -0.45491,0.45491 l -6.16124,0 c -0.25202,0 -0.45492,-0.20289 -0.45492,-0.45491 l 0,-11.64132 C 170.66241,206.63792 170.86531,206.43503 171.11733,206.43503 Z"
           id="rect21643"
           inkscape:connector-curvature="0"
           sodipodi:nodetypes="ssscssssss" />
      </g>
    </g>
    <g
       id="g5230"
       style="filter:url(#filter5236)">
      <path
         id="path5116"
         transform="translate(61.0002,177)"
         d="m 108.28125,96.75 c -5.43211,0 -9.84375,4.41164 -9.84375,9.84375 0,5.43211 4.41164,9.84375 9.84375,9.84375 5.43211,0 9.84375,-4.41164 9.84375,-9.84375 C 118.125,101.16164 113.71336,96.75 108.28125,96.75 z m -4.5625,13.09375 c 1.11941,0.33125 2.46852,0.53125 3.90625,0.53125 1.43781,0 2.78684,-0.2 3.90625,-0.53125 0.0387,0.17993 0.0937,0.34238 0.0937,0.53125 0,1.77809 -1.79086,3.21875 -4,3.21875 -2.20914,0 -4,-1.44066 -4,-3.21875 C 103.62505,110.18613 103.68005,110.02368 103.71875,109.84375 Z"
         style="color:#000000;color-interpolation:sRGB;color-interpolation-filters:linearRGB;fill:#ffffff;fill-opacity:1;fill-rule:nonzero;stroke:none;stroke-width:0.2;marker:none;visibility:visible;display:inline;overflow:visible;enable-background:accumulate;clip-rule:nonzero;color-rendering:auto;image-rendering:auto;shape-rendering:auto;text-rendering:auto"
         inkscape:connector-curvature="0"
         sodipodi:nodetypes="ssssscscsscc" />
      <path
         id="path5063"
         transform="translate(61.0002,177)"
         d="m 88.125,112.125 c -5.432106,0 -9.84375,4.41164 -9.84375,9.84375 0,5.43211 4.411644,9.84375 9.84375,9.84375 5.432106,0 9.8125,-4.41164 9.8125,-9.84375 C 97.9375,116.53664 93.557106,112.125 88.125,112.125 z m -7.5625,7.8125 c 0.56574,2.42646 3.01205,4.78822 6.375,5.84375 3.36253,1.0554 6.68026,0.51123 8.53125,-1.15625 -1.41764,3.91842 -5.67334,6.07243 -9.6875,4.8125 C 81.7671,128.17758 79.48671,123.96321 80.5625,119.9375 Z"
         style="color:#000000;color-interpolation:sRGB;color-interpolation-filters:linearRGB;fill:#ffffff;fill-opacity:1;fill-rule:nonzero;stroke:none;stroke-width:0.2;marker:none;visibility:visible;display:inline;overflow:visible;enable-background:accumulate;clip-rule:nonzero;color-rendering:auto;image-rendering:auto;shape-rendering:auto;text-rendering:auto"
         inkscape:connector-curvature="0"
         sodipodi:nodetypes="ssssscscsc" />
      <path
         inkscape:connector-curvature="0"
         id="path5098"
         d="m 166.46448,297.8266 c -3.80673,2.51391 -6.35033,6.82743 -6.40189,11.73241 -0.0825,7.84797 6.24638,14.28299 14.09435,14.3655 7.84798,0.0825 14.2546,-6.22574 14.33711,-14.07371 0.0825,-7.84797 -6.22574,-14.25459 -14.07371,-14.3371 C 171.47734,295.48276 168.74853,296.31825 166.46448,297.8266 z m -2.84216,15.61225 c 2.64888,2.43718 7.45988,3.27039 12.33388,1.79669 4.87461,-1.47389 8.42593,-4.81505 9.28014,-8.31205 1.49309,5.83244 -1.86115,11.85754 -7.67969,13.61682 C 171.7381,322.2996 165.61093,319.12147 163.62232,313.43885 Z"
         style="color:#000000;color-interpolation:sRGB;color-interpolation-filters:linearRGB;fill:#ffffff;fill-opacity:1;fill-rule:nonzero;stroke:none;stroke-width:0.2;marker:none;visibility:visible;display:inline;overflow:visible;enable-background:accumulate;clip-rule:nonzero;color-rendering:auto;image-rendering:auto;shape-rendering:auto;text-rendering:auto"
         sodipodi:nodetypes="sssssscscsc" />
      <path
         style="color:#000000;color-interpolation:sRGB;color-interpolation-filters:linearRGB;fill:#ffffff;fill-opacity:1;fill-rule:nonzero;stroke:none;stroke-width:0.2;marker:none;visibility:visible;display:inline;overflow:visible;enable-background:accumulate;clip-rule:nonzero;color-rendering:auto;image-rendering:auto;shape-rendering:auto;text-rendering:auto"
         d="m 150.76712,309.55439 c -0.0557,1.76674 -0.93096,2.62098 -1.74841,3.74566 0.82601,0.96725 2.96806,5.73358 3.44309,9.36109 -1.37312,2.51452 -4.1856,4.15888 -4.1856,4.15888 0,0 -3.2647,-1.95892 -4.30138,-4.09201 0.742,-3.24112 1.93909,-7.92034 3.1586,-9.30934 -0.80802,-1.03521 -1.46768,-2.92324 -1.28205,-4.1415 C 147.33789,309.64211 148.76259,310.34166 150.76712,309.55439 Z"
         id="path5228"
         inkscape:connector-curvature="0"
         sodipodi:nodetypes="cccccccc" />
    </g>
    <path
       style="color:#000000;color-interpolation:sRGB;color-interpolation-filters:linearRGB;fill:#ffffff;fill-opacity:1;fill-rule:nonzero;stroke:none;stroke-width:0.2;marker:none;visibility:visible;display:inline;overflow:visible;filter:url(#filter5354);enable-background:accumulate;clip-rule:nonzero;color-rendering:auto;image-rendering:auto;shape-rendering:auto;text-rendering:auto"
       d="m 85.46895,341.96875 c -2.411551,-0.0285 -6.06548,3.03543 -5.375,3.53125 1.335536,0.95899 7.866181,-6.88813 6.625,0.875 -0.467348,2.92309 -1.875366,4.80593 -1.25,5.375 -6.144487,1.16899 -4.451748,5.9216 -9.6875,11.65625 -2.133103,2.33636 -0.513528,4.62448 4.4375,6.5625 -0.564527,0.0875 -0.534129,0.53097 -0.46875,1.1875 -0.643408,-2e-5 -2.012429,1.85169 -2.96875,1.90625 -1.05525,0.0602 -1.350839,-1.61425 -1.5625,-2.40625 -0.381529,-0.71748 -4.105277,-3.63413 -5.625,-3.5625 -0.350705,0.0165 -0.577062,0.19446 -0.625,0.59375 -0.02633,0.21931 5.27375,1.97725 4.4375,3.3125 -0.348824,0.71232 -3.766981,0.10499 -4.125,1.0625 0.162835,0.98976 4.078689,-0.23978 4.65625,-0.4375 -0.06103,1.16147 -2.898361,3.39868 -2.34375,3.75 0.880448,0.55773 2.119923,-1.84865 2.84375,-2.9375 0,0 0.916141,1.53636 2.125,1.71875 1.174583,0.17722 2.134967,-0.766 3.625,0.0312 0.162936,0.53458 0.35675,1.10152 0.625,1.65625 -0.012,-0.005 -0.01935,-0.0267 -0.03125,-0.0312 -0.06188,-0.0236 -0.125292,-0.009 -0.1875,0 -0.933127,0.13192 -1.917919,3.67753 -3.28125,4.28125 -1.454161,0.64407 -3.500892,-1.21563 -4.21875,-2.21875 -1.989755,-1.18737 -6.838716,-1.23931 -7.375,-0.0937 -0.536298,1.14559 5.439634,0.26074 6.4375,1 -0.113642,1.18807 -3.72205,1.14932 -3.71875,2.6875 0.753943,1.30755 3.385196,-1.29042 4.09375,-1.875 0.529639,1.66798 -2.414896,4.88831 -1.59375,5.4375 0.821225,0.54915 1.901572,-2.67671 2.34375,-4.59375 0,0 2.513444,1.72768 4.3125,1.34375 1.76422,-0.37646 2.342781,-0.76014 5.375,-2.78125 0.277135,0.30516 0.566056,0.59526 0.875,0.875 -1.54291,2.59724 -1.921265,3.27931 -2.1875,4.9375 -0.291834,1.81762 1.5625,4.25 1.5625,4.25 -1.893358,0.53982 -5.028285,1.8011 -4.4375,2.59375 0.590784,0.79264 3.618443,-2.3504 5.3125,-1.90625 -0.548077,0.73799 -3.001531,3.53201 -1.65625,4.21875 1.537463,-0.0752 1.318431,-3.70076 2.5,-3.875 0.839911,0.12641 1.132491,2.65698 2.25,2.0625 1.117508,-0.59449 -1.93366,-2.39803 -1.09375,-3.8125 -1.039211,-0.66623 -3.288181,-1.85754 -2.71875,-3.34375 0.449952,-1.17438 3.030563,-2.15523 3.875,-3 0.986575,0.37146 2.054991,0.59375 3.1875,0.59375 2.305023,0 4.379217,-0.66259 6.15625,-1.6875 0.606547,0.74503 4.10003,0.43984 5.125,1.46875 1.12324,1.12758 -0.44527,3.12581 -1.125,4.15625 1.34138,0.9523 -0.10634,4.00355 1.15625,4.09375 1.26257,0.0902 -0.12272,-2.51258 0.59375,-2.96875 1.15071,-0.31992 2.5329,2.33603 3.96875,1.78125 0.95117,-1.17331 -2.54349,-1.98519 -3.34375,-2.4375 1.36836,-1.09308 4.84393,0.0891 5.0625,-0.875 0.21855,-0.96414 -2.58167,-0.39941 -4.53125,-0.125 0,0 0.69139,-2.95692 -0.3125,-4.5 -0.85163,-1.30904 -2.50917,-1.53523 -3.3125,-3.21875 0.4922,-0.5273 0.93719,-1.07485 1.3125,-1.625 0.29393,0.58778 3.29824,0.40692 4.09375,0.96875 0.82113,0.57993 2.71756,0.91011 2.40625,1.625 0.93788,0.44722 -0.0455,2.4557 0.75,2.375 0.79547,-0.0807 0.0723,-1.51348 0.46875,-1.875 0.68139,-0.32379 1.82287,1.6571 2.65625,1.15625 0.62199,-0.85451 -1.25939,-1.50301 -2.34375,-1.625 0.73307,-0.82843 3.43725,-0.25134 3.46875,-0.875 0.0315,-0.62364 -2.06653,-0.16329 -3.25,0.21875 0,0 -2.88776,-1.64405 -4,-2.21875 -0.97952,-0.50612 -1.20935,-1.00263 -3.09375,-1.9375 0.0824,-0.21473 0.15942,-0.4183 0.21875,-0.625 0.0125,-0.0437 0.0177,-0.10939 0.0312,-0.15625 0.008,0.0754 0.0312,0.3125 0.0312,0.3125 2.55358,-0.0137 2.98978,-0.0114 4.125,-0.46875 1.13521,-0.45748 1.875,-2.34375 1.875,-2.34375 0.95706,0.89298 2.7513,2.26468 3,1.65625 0.24866,-0.60841 -2.57792,-1.25789 -2.90625,-2.375 0.60832,0.0589 3.03927,0.50174 2.96875,-0.5 -0.57037,-0.84972 -2.55785,0.51936 -3.0625,-0.0937 0.27543,-0.779 3.90949,-2.50509 3.1875,-2.9375 -0.0903,-0.0541 -0.20048,-0.0737 -0.34375,-0.0625 -1.0029,0.0785 -3.11362,1.62295 -3.6875,2.84375 -0.0228,0.82039 -0.45827,2.62682 -1.5,2.8125 -0.99833,0.178 -2.92135,-1.52162 -3.4375,-1.15625 -0.10077,-0.18435 -0.25837,-0.29243 -0.5625,-0.25 5.28422,-2.13131 7.0132,-5.89833 4.09375,-8.90625 -4.66684,-4.80825 -5.5043,-8.24666 -9.15625,-9.71875 0.318565,-0.60653 -0.729701,-2.39459 -1.15625,-5.0625 -1.241181,-7.76313 7.12372,4.1247 8.40625,3.09375 2.98171,-2.3968 -3.30382,-7.26675 -6.90625,-7.125 -1.200806,0.0472 -2.085729,0.65264 -2.25,2.09375 -0.479728,4.20855 -1.435127,5.61468 -1.125,6.3125 -2.418519,-0.26433 -4.366641,-0.38572 -5.96875,-0.34375 0.683178,-0.64949 -0.578019,-2.2706 -0.75,-7.03125 C 87.402768,342.6055 86.565109,341.9817 85.46895,341.96875 z m 0,11.65625 c 0.507,-0.0557 0.956831,0.0934 1.3125,0.625 1.624513,2.42802 4.300202,2.36364 4.34375,3.9375 0.0554,2.0025 -2.286519,3.4765 -4.8125,3.3125 -2.52598,-0.16401 -4.469569,-1.90704 -4.34375,-3.90625 C 82.063315,356.09434 83.94795,353.79199 85.46895,353.625 z m 12.1875,1.46875 c 1.193717,-0.0781 2.76233,2.18599 2.6875,3.375 -0.0921,1.4634 -1.780039,2.53415 -3.75,2.40625 -1.969962,-0.1279 -3.84555,-1.47814 -3.40625,-2.875 0.317901,-1.01084 2.634053,-0.8225 3.75,-2.40625 C 97.153108,355.28804 97.380977,355.1118 97.65645,355.09375 z m -10.15625,1.8125 c -1.114309,0 -2.03125,0.9307 -2.03125,2.0625 0,1.13181 0.916941,2.0625 2.03125,2.0625 1.114309,0 2.03125,-0.93069 2.03125,-2.0625 C 89.53145,357.83695 88.614509,356.90625 87.5002,356.90625 z m 8.5,0.84375 c -0.471841,0 -0.84375,0.39576 -0.84375,0.875 0,0.47925 0.371909,0.875 0.84375,0.875 0.47184,0 0.84375,-0.39575 0.84375,-0.875 C 96.84395,358.14576 96.47204,357.75 96.0002,357.75 z m 3.4375,5.40625 c 3.32422,0.0229 5.36537,1.18674 5.3125,2.5625 -0.0786,2.04631 -4.764964,5.15625 -12.40625,5.15625 -7.64129,0 -15.946082,-3.2343 -15.25,-5.15625 1.041098,-2.87457 2.206156,-2.30325 4.125,-1.34375 -0.01556,0.19138 -0.03125,0.36272 -0.03125,0.5625 0,2.08181 0.855836,3.78125 1.9375,3.78125 0.932417,0 1.739941,-1.25793 1.9375,-2.9375 1.662482,0.30005 3.657122,0.22964 6.15625,-0.8125 1.360178,-0.5672 2.660368,-0.95872 3.875,-1.25 -0.01002,0.15652 -0.03125,0.30731 -0.03125,0.46875 0,2.24416 1.02157,4.03125 2.25,4.03125 1.228434,0 2.21875,-1.78709 2.21875,-4.03125 C 99.531458,363.835 99.483878,363.48238 99.4377,363.15625 Z"
       id="path5287"
       inkscape:connector-curvature="0" />
  </g>
  <g
     inkscape:groupmode="layer"
     id="layer1"
     inkscape:label="icons">
    <path
       id="path20864"
       style="fill:#ffffff;fill-opacity:1;fill-rule:nonzero;stroke:none;filter:url(#filter4322)"
       d="m 55.999998,109.11328 c -1.76592,0.78336 -3.66408,1.31256 -5.65584,1.55064 2.0328,-1.21872 3.59448,-3.14856 4.32984,-5.44824 -1.90296,1.12872 -4.0104,1.94808 -6.25368,2.38968 -1.79616,-1.914 -4.35552,-3.10968 -7.188,-3.10968 -5.4384,0 -9.847872,4.40904 -9.847872,9.84744 0,0.77184 0.08707,1.52352 0.255,2.24424 -8.184384,-0.41064 -15.440832,-4.33128 -20.297736,-10.28928 -0.847776,1.4544 -1.333399,3.14616 -1.333399,4.95096 0,3.41664 1.738495,6.4308 4.381039,8.19672 -1.614288,-0.0511 -3.13284,-0.49416 -4.4604456,-1.23168 -9.384e-4,0.041 -9.384e-4,0.0821 -9.384e-4,0.12384 0,4.77127 3.394584,8.75124 7.89948,9.65621 -0.826224,0.225 -1.696224,0.34548 -2.594352,0.34548 -0.634584,0 -1.25148,-0.0619 -1.852872,-0.17674 1.25316,3.91219 4.89,6.75958 9.199296,6.83871 -3.370296,2.64148 -7.616424,4.21584 -12.230333,4.21584 -0.7949062,0 -1.5788422,-0.0468 -2.349187,-0.13772 4.358064,2.79403 9.53448,4.42462 15.095712,4.42462 18.113568,0 28.019088,-15.00571 28.019088,-28.01928 0,-0.42696 -0.0098,-0.85152 -0.0288,-1.27392 1.92432,-1.38864 3.59376,-3.12288 4.914,-5.09784"
       inkscape:connector-curvature="0" />
    <g
       id="g21227"
       transform="matrix(1.2995567,0,0,1.2995567,-5.3702934,5.029274)"
       style="filter:url(#filter4262)">
      <g
         id="g21218" />
      <g
         id="g21246"
         transform="translate(2.3084795,-0.76949317)">
        <path
           style="color:#000000;color-interpolation:sRGB;color-interpolation-filters:linearRGB;fill:#ffffff;fill-opacity:1;fill-rule:nonzero;stroke:none;stroke-width:1px;marker:none;visibility:visible;display:inline;overflow:visible;enable-background:accumulate;clip-rule:nonzero;color-rendering:auto;image-rendering:auto;shape-rendering:auto;text-rendering:auto"
           id="path21124"
           d="m 33.584953,-21.564782 c -0.09733,0.395324 -0.165218,0.796672 -0.229404,1.198425 -0.140445,1.009836 -0.277986,2.019927 -0.430097,3.028118 -0.181855,1.27191 -0.402108,2.537329 -0.650688,3.797727 -0.177556,0.880947 -0.376176,1.757591 -0.586944,2.631148 -0.05369,0.233536 -0.118992,0.465194 -0.155391,0.702312 0.0036,1.5460194 -2.182769,1.5511568 -2.186401,0.0051 l 0,0 c -0.03921,-0.251537 -0.01516,-0.503267 0.01849,-0.754805 0.117728,-0.880579 0.26863,-1.756138 0.409509,-2.633226 0.210109,-1.265477 0.417169,-2.531474 0.642327,-3.794396 0.188993,-1.014323 0.370775,-2.030703 0.60459,-3.035915 0.110526,-0.416338 0.213504,-0.845202 0.413284,-1.229448 C 31.494275,-23.170497 33.645002,-23.085575 33.584953,-21.564782 Z"
           inkscape:connector-curvature="0" />
        <g
           transform="translate(0.04162135,9.7851044)"
           id="g21212">
          <path
             style="color:#000000;color-interpolation:sRGB;color-interpolation-filters:linearRGB;fill:#ffffff;fill-opacity:1;fill-rule:nonzero;stroke:none;stroke-width:1px;marker:none;visibility:visible;display:inline;overflow:visible;enable-background:accumulate;clip-rule:nonzero;color-rendering:auto;image-rendering:auto;shape-rendering:auto;text-rendering:auto"
             id="path21094"
             d="m 15.040571,-33.981612 c 0.03906,0.53693 -0.0496,1.07681 -0.113752,1.60871 -0.171007,1.387169 -0.391935,2.767611 -0.611394,4.147757 -0.271936,1.70868 -0.562036,3.414383 -0.871699,5.116617 -0.238205,1.30885 -0.500405,2.613016 -0.768623,3.915976 -0.07544,0.57457 -0.319759,1.129844 -0.365053,1.708658 0.01987,1.552717 -2.176005,1.580815 -2.195874,0.0281 l 0,0 c -0.1456735,-0.581879 0.07024,-1.200595 0.107982,-1.783142 0.184846,-1.307449 0.36854,-2.615123 0.578822,-3.918797 0.273125,-1.708671 0.545249,-3.417696 0.870953,-5.117361 0.260422,-1.385743 0.528659,-2.770167 0.845209,-4.144404 0.122378,-0.521186 0.250426,-1.04102 0.373005,-1.562112 C 12.890147,-35.50219 15.040571,-35.50219 15.040571,-33.981612 Z"
             inkscape:connector-curvature="0" />
          <path
             style="color:#000000;color-interpolation:sRGB;color-interpolation-filters:linearRGB;fill:#ffffff;fill-opacity:1;fill-rule:nonzero;stroke:none;stroke-width:1px;marker:none;visibility:visible;display:inline;overflow:visible;enable-background:accumulate;clip-rule:nonzero;color-rendering:auto;image-rendering:auto;shape-rendering:auto;text-rendering:auto"
             id="path21096"
             d="m 19.638584,-34.506167 c 0.04033,0.569969 -0.06752,1.144529 -0.147898,1.707207 -0.2005,1.362948 -0.465316,2.715059 -0.738269,4.064981 -0.296549,1.483365 -0.644887,2.955624 -1.033835,4.417304 -0.267565,1.013227 -0.569242,2.016741 -0.87166,3.019934 -0.11951,0.413024 -0.257333,0.820302 -0.405912,1.223662 -0.02175,1.535742 -2.193617,1.504985 -2.171869,-0.03076 l 0,0 c -0.02302,-0.426479 0.147067,-0.842183 0.207321,-1.259025 0.219163,-1.00977 0.464453,-2.013764 0.691959,-3.021674 0.333396,-1.467365 0.653497,-2.937679 0.968987,-4.408991 0.295295,-1.355906 0.596109,-2.710838 0.934077,-4.056865 0.137307,-0.552033 0.284256,-1.101646 0.413037,-1.655775 C 17.484522,-36.029319 19.638584,-36.029319 19.638584,-34.506167 Z"
             inkscape:connector-curvature="0" />
          <path
             style="color:#000000;color-interpolation:sRGB;color-interpolation-filters:linearRGB;fill:#ffffff;fill-opacity:1;fill-rule:nonzero;stroke:none;stroke-width:1px;marker:none;visibility:visible;display:inline;overflow:visible;enable-background:accumulate;clip-rule:nonzero;color-rendering:auto;image-rendering:auto;shape-rendering:auto;text-rendering:auto"
             id="path21098"
             d="m 22.94018,-32.439776 c -0.410617,0.08922 -0.811542,0.223006 -1.210767,0.353089 -1.080324,0.370436 -2.127101,0.829773 -3.176202,1.279007 -1.356315,0.586138 -2.710313,1.177717 -4.063061,1.772044 -1.163319,0.503302 -2.321359,1.018605 -3.478723,1.535408 -0.4002,0.182822 -0.80408,0.357195 -1.2091762,0.528798 -0.2106523,1.653791 -2.5494661,1.355884 -2.3388139,-0.297907 l 0,0 c 0.3739525,-0.175543 0.7465018,-0.353956 1.1172113,-0.536274 1.1080365,-0.535245 2.2199288,-1.062732 3.3471238,-1.556722 1.354441,-0.608052 2.716201,-1.200218 4.08507,-1.77506 1.112942,-0.458146 2.225204,-0.924369 3.376781,-1.27869 0.471898,-0.138369 0.946934,-0.266298 1.42998,-0.359775 C 21.057249,-34.275333 23.177826,-33.93925 22.94018,-32.439776 Z"
             inkscape:connector-curvature="0" />
          <path
             style="color:#000000;color-interpolation:sRGB;color-interpolation-filters:linearRGB;fill:#ffffff;fill-opacity:1;fill-rule:nonzero;stroke:none;stroke-width:1px;marker:none;visibility:visible;display:inline;overflow:visible;enable-background:accumulate;clip-rule:nonzero;color-rendering:auto;image-rendering:auto;shape-rendering:auto;text-rendering:auto"
             id="path21100"
             d="m 24.528291,-28.009626 c -0.377783,0.01166 -0.747646,0.123977 -1.110039,0.222267 -1.060214,0.313353 -2.086339,0.730161 -3.114887,1.132724 -1.618444,0.63942 -3.24369,1.260693 -4.876719,1.861837 -1.621175,0.59284 -3.252078,1.15803 -4.893184,1.693085 -1.1293756,0.361622 -2.2608728,0.71687 -3.4008888,1.043571 -1.2938604,0.410998 -2.191622,0.284782 -3.6830027,0.288844 -0.2686531,-1.555871 1.9316814,-1.935804 2.2003346,-0.379932 l 0,0 c -3.7153146,0.02244 -1.9000002,0.128342 -0.8955507,-0.245443 1.0715154,-0.34044 2.1367611,-0.699646 3.2005855,-1.063418 1.6031202,-0.548369 3.1987591,-1.117957 4.7904301,-1.698708 1.6676,-0.606621 3.328648,-1.230783 4.994143,-1.843065 1.111418,-0.405012 2.223253,-0.817232 3.365659,-1.127703 0.431957,-0.104989 0.864638,-0.211068 1.3083,-0.253154 C 22.674462,-29.874124 24.78928,-29.505029 24.528291,-28.009626 Z"
             inkscape:connector-curvature="0" />
        </g>
        <path
           inkscape:connector-curvature="0"
           d="m 25.98689,-19.074369 c 0.06048,-0.284038 0.207927,-0.538123 0.351471,-0.786827 0.369275,-0.601744 0.817409,-1.148647 1.278904,-1.680898 0.666581,-0.760655 1.445855,-1.4051 2.255166,-2.006302 0.770218,-0.567363 1.607177,-1.028567 2.476401,-1.423412 1.292157,-0.530124 2.826442,-0.755399 4.182866,-0.326574 0.645623,0.347119 0.810113,1.036324 0.911316,1.7082 0.09422,1.056259 -0.185291,2.071497 -0.549541,3.050653 -0.416666,1.046577 -1.0726,1.95716 -1.798613,2.807679 -0.594557,0.665442 -1.27181,1.247822 -1.957669,1.815769 -0.408667,0.326384 -0.811807,0.659609 -1.21879,0.988049 -0.16207,0.140568 -0.341634,0.260129 -0.506969,0.396208 -0.0085,0.0073 -0.01434,0.02319 -0.02548,0.02194 -2.395683,-0.270003 -2.565752,0.09818 -1.701324,-0.549406 0.389261,-0.300032 0.812327,-0.550297 1.24598,-0.77966 0.538809,-0.290462 1.122935,-0.446745 1.726871,-0.519711 1.996842,-0.0047 2.761316,-0.377468 4.110015,0.780826 0.777564,0.761663 1.191094,1.773144 1.560036,2.77573 0.418558,1.276375 0.66056,2.600597 0.854861,3.9268837 0.139726,1.0240976 0.232011,2.0537781 0.315609,3.0837144 0.04855,0.5978678 0.08922,1.1963091 0.129927,1.7947425 0.0143,0.21054 0.03267,0.4208377 0.03489,0.6319054 0.01459,1.5519575 -2.180211,1.5725881 -2.194799,0.020631 l 0,0 c -0.03476,-0.2084664 -0.07503,-0.416039 -0.102028,-0.6257622 -0.08834,-0.5969749 -0.170358,-1.1948226 -0.253444,-1.7925531 -0.14394,-1.024068 -0.286958,-2.0483819 -0.455537,-3.0687597 -0.224801,-1.303581 -0.46493,-2.608865 -0.844878,-3.877675 -0.315062,-0.951885 -0.655004,-1.928373 -1.393823,-2.641901 -0.27198,-0.219687 -0.525618,-0.407927 -0.863172,-0.516633 -0.753192,-0.242557 -2.407716,-0.03126 1.382246,-0.11583 -0.597867,0.03235 -1.180481,0.156278 -1.720939,0.42319 -0.453816,0.218316 -0.895089,0.461097 -1.318433,0.734333 -0.894887,0.59978 -0.890983,0.403124 -2.626466,0.09515 0.137874,-0.137396 0.265518,-0.287431 0.417593,-0.411502 0.372923,-0.329137 0.729905,-0.676228 1.111198,-0.996071 0.639751,-0.569541 1.275372,-1.145937 1.848364,-1.784094 0.705715,-0.827003 1.352584,-1.705592 1.771647,-2.717299 0.372616,-0.93363 0.67649,-1.901154 0.646775,-2.919287 -0.05132,-0.589003 -0.144726,-1.216491 -0.796871,-1.3998 -0.890833,-0.109409 -0.553145,-0.05653 1.736451,-0.04921 0.09745,3.12e-4 -0.195068,0.0085 -0.291443,0.02296 -0.347736,0.05205 -0.678085,0.180221 -1.001328,0.312732 -0.843963,0.381443 -1.654517,0.832143 -2.406088,1.375686 -0.813122,0.591852 -1.603358,1.218353 -2.297942,1.949113 -0.496308,0.520861 -0.977298,1.057138 -1.412753,1.630533 -0.170038,0.230304 -0.330611,0.466568 -0.467277,0.718424 C 28.076222,-17.483173 25.933237,-17.55905 25.98689,-19.074369 Z"
           id="path21126"
           style="color:#000000;color-interpolation:sRGB;color-interpolation-filters:linearRGB;fill:#ffffff;fill-opacity:1;fill-rule:nonzero;stroke:none;stroke-width:1px;marker:none;visibility:visible;display:inline;overflow:visible;enable-background:accumulate;clip-rule:nonzero;color-rendering:auto;image-rendering:auto;shape-rendering:auto;text-rendering:auto" />
        <path
           inkscape:connector-curvature="0"
           d="m 44.876421,-25.742043 c 0.188961,0.238906 0.340326,0.505333 0.498461,0.765017 0.233203,0.390711 0.476191,0.775373 0.720946,1.158897 0.182988,0.287064 0.365511,0.574423 0.547983,0.861816 0.103277,0.16268 0.206511,0.325389 0.309734,0.488105 0.05675,0.08874 0.123129,0.17031 0.132274,0.277553 -0.04718,0.998361 -1.754901,0.305336 -2.540855,0.09923 -0.415025,-0.122495 -0.844542,-0.180342 -1.272638,-0.234683 -0.312379,-0.03979 -0.626826,-0.06222 -0.941751,-0.06492 -0.115685,-9.9e-4 -0.462729,0.0027 -0.347046,0.0039 1.988152,0.02053 2.618742,-0.04203 1.593238,0.04231 -0.802318,0.06807 -1.548666,0.349047 -2.261217,0.70806 -0.775316,0.408338 -1.396699,1.006903 -1.93629,1.686745 -0.530314,0.706742 -0.791042,1.52958 -0.93991,2.38836 -0.117463,0.859836 0.03741,1.674141 0.404139,2.450982 0.484921,0.839925 1.088667,1.177518 2.002392,1.415114 0.163267,0.02374 0.325653,0.05463 0.4898,0.07122 0.173074,0.01749 0.347042,0.02687 0.52095,0.03094 0.181915,0.0043 0.72779,-0.0024 0.545861,-0.006 -0.625196,-0.01248 -1.25124,0.0093 -1.875851,-0.02055 -0.186852,-0.0089 0.373323,-0.02512 0.559601,-0.04226 0.187281,-0.01723 0.373952,-0.04055 0.560928,-0.06083 1.012463,-0.12813 2.017064,-0.308832 3.019048,-0.500743 0.134094,-0.0263 0.268189,-0.0526 0.402283,-0.0789 0.251297,-1.659262 2.597849,-1.303875 2.346552,0.355388 l 0,0 c -0.127004,0.02781 -0.254007,0.05563 -0.381011,0.08344 -0.974818,0.207774 -1.953477,0.398091 -2.941031,0.535728 -1.443173,0.178315 -2.497739,0.14421 -4.11607,0.14931 -0.512708,0.0016 -1.025016,-0.04388 -1.520894,-0.179805 -0.94385,-0.334092 -1.510118,-0.743866 -1.996267,-1.639073 -0.37142,-0.830038 -0.543596,-1.696427 -0.42024,-2.607906 0.146668,-0.900206 0.413178,-1.766105 0.948901,-2.517961 0.540706,-0.715681 1.161483,-1.355807 1.95182,-1.799166 0.724836,-0.392139 1.489805,-0.702691 2.314758,-0.802451 1.416885,-0.15184 2.866674,-0.138259 4.281525,0.04113 0.401473,0.06719 0.801274,0.146218 1.185603,0.283789 1.197651,0.405123 -2.001654,-0.681299 -1.771431,0.270714 -0.05438,-0.03127 -0.112842,-0.133673 -0.160998,-0.196841 -0.116509,-0.161855 -0.232924,-0.323779 -0.348761,-0.486117 -0.203354,-0.285462 -0.406015,-0.571475 -0.601543,-0.862383 -0.252341,-0.381193 -0.495366,-0.768815 -0.710322,-1.172587 -0.138984,-0.254022 -0.279404,-0.508491 -0.399815,-0.771854 C 42.642481,-27.137555 44.789625,-27.260304 44.876421,-25.742043 Z"
           id="path21136"
           style="color:#000000;color-interpolation:sRGB;color-interpolation-filters:linearRGB;fill:#ffffff;fill-opacity:1;fill-rule:nonzero;stroke:none;stroke-width:1px;marker:none;visibility:visible;display:inline;overflow:visible;enable-background:accumulate;clip-rule:nonzero;color-rendering:auto;image-rendering:auto;shape-rendering:auto;text-rendering:auto" />
        <path
           style="color:#000000;color-interpolation:sRGB;color-interpolation-filters:linearRGB;fill:#ffffff;fill-opacity:1;fill-rule:nonzero;stroke:none;stroke-width:1px;marker:none;visibility:visible;display:inline;overflow:visible;enable-background:accumulate;clip-rule:nonzero;color-rendering:auto;image-rendering:auto;shape-rendering:auto;text-rendering:auto"
           id="path21210"
           d="m 27.938518,-23.0282 c 0.02707,0.475427 -0.03058,0.953858 -0.0672,1.42738 -0.08651,1.172532 -0.193791,2.342971 -0.311528,3.512256 -0.145475,1.363142 -0.314821,2.723216 -0.494082,4.081582 -0.139069,1.077882 -0.30943,2.150246 -0.494005,3.219921 -0.01356,0.8495092 -2.231648,0.8079772 -2.218093,-0.04153 l 0,0 c 0.128477,-1.071258 0.256469,-2.142572 0.372923,-3.215459 0.156378,-1.359767 0.31056,-2.719841 0.478946,-4.077952 0.141374,-1.173878 0.281461,-2.348856 0.475604,-3.514144 0.08109,-0.466388 0.169524,-0.931504 0.275654,-1.392052 C 25.956739,-23.787203 27.938518,-23.787203 27.938518,-23.0282 Z"
           inkscape:connector-curvature="0" />
      </g>
    </g>
  </g>
</svg>
